<svg id="Layer_1" data-name="Layer 1" xmlns="http://www.w3.org/2000/svg" xmlns:xlink="http://www.w3.org/1999/xlink" viewBox="0 0 163.69 197.16"><defs><style>.cls-1,.cls-7{fill:#f4f3dc;}.cls-1,.cls-10{stroke:#a8a796;}.cls-1,.cls-10,.cls-11,.cls-15,.cls-19,.cls-2,.cls-20,.cls-23,.cls-3,.cls-32,.cls-33,.cls-37,.cls-4,.cls-5,.cls-6{stroke-miterlimit:10;}.cls-12,.cls-2{fill:#99714d;}.cls-15,.cls-2,.cls-4{stroke:#936037;}.cls-16,.cls-19,.cls-3{fill:#67ce67;}.cls-19,.cls-20,.cls-3{stroke:#063;}.cls-24,.cls-4{fill:#b7895c;}.cls-28,.cls-5{fill:#91c9e8;}.cls-32,.cls-33,.cls-5{stroke:#569ab7;}.cls-34,.cls-6{fill:#b7b7bc;}.cls-37,.cls-6{stroke:#777775;}.cls-19,.cls-33,.cls-37,.cls-6{stroke-width:0.75px;}.cls-8{clip-path:url(#clip-path);}.cls-9{fill:#c9c8c0;}.cls-10,.cls-15,.cls-20,.cls-23,.cls-32,.cls-33,.cls-37{fill:none;}.cls-11{fill:#f76161;stroke:#f44747;}.cls-13{clip-path:url(#clip-path-2);}.cls-14{fill:#725033;}.cls-17{clip-path:url(#clip-path-3);}.cls-18{fill:#54a854;}.cls-21{clip-path:url(#clip-path-4);}.cls-22{fill:#063;}.cls-23{stroke:#1d1d1b;}.cls-25{clip-path:url(#clip-path-5);}.cls-26{fill:#9e673f;}.cls-27{clip-path:url(#clip-path-6);}.cls-29{clip-path:url(#clip-path-7);}.cls-30{fill:#71aebc;}.cls-31{fill:#669faf;}.cls-35{clip-path:url(#clip-path-8);}.cls-36{fill:#888889;}</style><clipPath id="clip-path" transform="translate(-15.47 -13.68)"><path class="cls-1" d="M123.18,147.46s13.28,7.15,21.45,9.83,15.19,4.34,30.64,16.21c0,0-26.49,43.43-38.81,35.11,0,0-31-16-45.19-27.19,0,0-10.72-3.83-.77-13.92s22.34-24.38,22.34-24.38Z"/></clipPath><clipPath id="clip-path-2" transform="translate(-15.47 -13.68)"><path class="cls-2" d="M146.93,94.1c-61.28-2.17-85.82,1.66-85.82,1.66l3.42,4.53,80.1-.26Z"/></clipPath><clipPath id="clip-path-3" transform="translate(-15.47 -13.68)"><path class="cls-3" d="M74.1,97.62S62.42,23.63,85,17.5s12.67,73,16,82.67c0,0-7.4,5-10.72,4.27s-12.9,4.48-14.17-.63S74.1,97.62,74.1,97.62Z"/></clipPath><clipPath id="clip-path-4" transform="translate(-15.47 -13.68)"><path class="cls-3" d="M111.17,97.7s-5.93-43.53,11.63-48.47a2.42,2.42,0,0,1,.6-.09c1.85,0,10.69.53,10.57,15.14a1.93,1.93,0,0,0,.07.53c.44,1.78,3.23,11.84,7.75,5.55a2.15,2.15,0,0,1,2.86-.59c1.1.7,1.71,2.45-.89,6.75a2.23,2.23,0,0,1-1.42,1c-2.14.48-7.38,1.84-7.28,3.77.12,2.43.12,16.09-.64,17.49S111,104.74,111.17,97.7Z"/></clipPath><clipPath id="clip-path-5" transform="translate(-15.47 -13.68)"><path class="cls-4" d="M75.7,150.52s35.68,13.28,62.93-.76c0,0,3.7-43.15,6-47.24,0,0-46.85,9.85-82,1.29C62.67,103.81,68.67,139,75.7,150.52Z"/></clipPath><clipPath id="clip-path-6" transform="translate(-15.47 -13.68)"><path class="cls-4" d="M60.5,95.76a5.65,5.65,0,0,0,0,6.76s14.94,10.34,84.77,0c0,0,8.17-6.89,1.91-8.42C147.18,94.1,101,101.88,60.5,95.76Z"/></clipPath><clipPath id="clip-path-7" transform="translate(-15.47 -13.68)"><path class="cls-5" d="M102.56,141.23c.76.16,2.5,6.1,2.5,7.51a4.39,4.39,0,0,1-1.41,2.68l.19,4.08c6.71,11.36,26.62,2.55,26.62,2.55,6.46-11.6-.89-24.41-4.25-29.26a6.17,6.17,0,0,0-4.22-2.63c-14.49-2.09-61.49,3.31-61.49,3.31C31.27,128.72,32.89,159,32.89,159c-1.37,2.05.84,5.46.84,5.46,11.58,6.63,24.77,2.25,26.77,1,2.21-1.41,2.64-1.7,2.17-6.77C62.06,152,66.9,146.9,66.9,146.9S84.65,137.46,102.56,141.23Z"/></clipPath><clipPath id="clip-path-8" transform="translate(-15.47 -13.68)"><path class="cls-6" d="M34,152.44s1.08,4.54-.35,5.37-9.19-.1-9.3-.93a4.23,4.23,0,0,1,2.73-3.83A46.92,46.92,0,0,1,34,152.44Z"/></clipPath></defs><path class="cls-7" d="M123.18,147.46s13.28,7.15,21.45,9.83,15.19,4.34,30.64,16.21c0,0-26.49,43.43-38.81,35.11,0,0-31-16-45.19-27.19,0,0-10.72-3.83-.77-13.92s22.34-24.38,22.34-24.38Z" transform="translate(-15.47 -13.68)"/><g class="cls-8"><path class="cls-9" d="M102.5,155.63s3.22,13.87,27.41,4.17c0,0,2.72-2.57.86-7.87-1.54-4.38-29.57,2.09-29.57,2.09" transform="translate(-15.47 -13.68)"/><path class="cls-9" d="M99.18,156.5s22.83,4.83,36.71-4.57c4.76-3.23-.66-4.55-.66-4.55H102.55Z" transform="translate(-15.47 -13.68)"/><path class="cls-10" d="M121,175.35" transform="translate(-15.47 -13.68)"/><path class="cls-9" d="M121.21,174.88s37.83-5.3,53.78-1.27l-.54.63S160,172.38,121.21,174.88Z" transform="translate(-15.47 -13.68)"/><path class="cls-9" d="M125.15,173.89a3.34,3.34,0,0,1,.49,4.78s-3.16,3.51-6.92.51S125.15,173.89,125.15,173.89Z" transform="translate(-15.47 -13.68)"/><path class="cls-9" d="M102.49,156.48S89.74,169,88.1,172.06c-1.43,2.66-1.45,6.63,3.6,9.06l-1.62,1.72s-8.56-3.44-8.75-4.15-1.85-9.95-1.85-9.95l14.87-11.62Z" transform="translate(-15.47 -13.68)"/><path class="cls-9" d="M170.8,173.94s5.26-.85.79,3.91c0,0,5.21-2.5,5.4-2.56s2.17-3.83,2.17-3.83l-3.89-1-.92,2.89Z" transform="translate(-15.47 -13.68)"/><path class="cls-9" d="M135.06,207.27s7.4,5.39,18.51-6.7a255.59,255.59,0,0,0,20.81-26.75l2.8,3-5.36,15.64L158,204.33l-14.11,6.51-11.3-.32,2.36-2.68" transform="translate(-15.47 -13.68)"/></g><path class="cls-10" d="M123.18,147.46s13.28,7.15,21.45,9.83,15.19,4.34,30.64,16.21c0,0-26.49,43.43-38.81,35.11,0,0-31-16-45.19-27.19,0,0-10.72-3.83-.77-13.92s22.34-24.38,22.34-24.38Z" transform="translate(-15.47 -13.68)"/><path class="cls-10" d="M175.27,173.5a208.79,208.79,0,0,0-52.72.9s-15-22.07-13.92-25.53" transform="translate(-15.47 -13.68)"/><path class="cls-11" d="M122.93,173s3.8,1.19,2.3,4.15c-1.15,2.27-2.18,2.56-4.92,2.24a2.88,2.88,0,0,1-1.85-1,4,4,0,0,1-.5-4.76S120.07,170.66,122.93,173Z" transform="translate(-15.47 -13.68)"/><path class="cls-12" d="M146.93,94.1c-61.28-2.17-85.82,1.66-85.82,1.66l3.42,4.53,80.1-.26Z" transform="translate(-15.47 -13.68)"/><g class="cls-13"><path class="cls-14" d="M86,94.93l0,8.35L59.19,99.92S61.7,95.85,62,96.08s20.49-1,20.49-1" transform="translate(-15.47 -13.68)"/></g><path class="cls-15" d="M146.93,94.1c-61.28-2.17-85.82,1.66-85.82,1.66l3.42,4.53,80.1-.26Z" transform="translate(-15.47 -13.68)"/><path class="cls-14" d="M97.41,96.58c-.6-.49,5.66-1.9,17.58-.82,4.87.44,1.63,5.66,1.63,5.66L91.2,104.87Z" transform="translate(-15.47 -13.68)"/><path class="cls-14" d="M133.92,94.48s6.71.09,7.76.43-3.49,2-3.49,2-6.13.56-6.13.37A32.76,32.76,0,0,1,133.92,94.48Z" transform="translate(-15.47 -13.68)"/><path class="cls-16" d="M74.1,97.62S62.42,23.63,85,17.5s12.67,73,16,82.67c0,0-7.4,5-10.72,4.27s-12.9,4.48-14.17-.63S74.1,97.62,74.1,97.62Z" transform="translate(-15.47 -13.68)"/><g class="cls-17"><path class="cls-18" d="M65.61,15l19.15.51S79.27,62.2,83,100.23l-29.36.38Z" transform="translate(-15.47 -13.68)"/><path class="cls-19" d="M84.4,17.7a59.68,59.68,0,0,0-.92,8.74" transform="translate(-15.47 -13.68)"/><path class="cls-19" d="M83.35,29.63s0,7-.12,7.4" transform="translate(-15.47 -13.68)"/><path class="cls-19" d="M82.72,41.63s-.26,5.23-.26,6.89" transform="translate(-15.47 -13.68)"/><path class="cls-19" d="M82,53.25a46.16,46.16,0,0,0-.25,6.89" transform="translate(-15.47 -13.68)"/><path class="cls-19" d="M81.44,64.86a52.1,52.1,0,0,0,0,6.51" transform="translate(-15.47 -13.68)"/><path class="cls-19" d="M81.44,77s-.13,3.7-.13,6.64" transform="translate(-15.47 -13.68)"/><path class="cls-19" d="M81.82,90.27c.38,5.41.63,6.44.77,9.51" transform="translate(-15.47 -13.68)"/></g><path class="cls-20" d="M74.1,97.62S62.42,23.63,85,17.5s12.67,73,16,82.67c0,0-7.4,5-10.72,4.27s-12.9,4.48-14.17-.63S74.1,97.62,74.1,97.62Z" transform="translate(-15.47 -13.68)"/><path class="cls-16" d="M111.17,97.7s-5.93-43.53,11.63-48.47a2.42,2.42,0,0,1,.6-.09c1.85,0,10.69.53,10.57,15.14a1.93,1.93,0,0,0,.07.53c.44,1.78,3.23,11.84,7.75,5.55a2.15,2.15,0,0,1,2.86-.59c1.1.7,1.71,2.45-.89,6.75a2.23,2.23,0,0,1-1.42,1c-2.14.48-7.38,1.84-7.28,3.77.12,2.43.12,16.09-.64,17.49S111,104.74,111.17,97.7Z" transform="translate(-15.47 -13.68)"/><g class="cls-21"><path class="cls-18" d="M107.35,46.35l15.71,1.41s-4.63,49.86-2.94,53.78-15.67.47-15.67.47Z" transform="translate(-15.47 -13.68)"/><path class="cls-19" d="M122.8,49.23c0,.1-1,5.12-.81,6.27" transform="translate(-15.47 -13.68)"/><path class="cls-19" d="M121.52,58.48s-.21,3.33-.08,6" transform="translate(-15.47 -13.68)"/><path class="cls-19" d="M121.06,68.1a52.55,52.55,0,0,1-.17,5.83" transform="translate(-15.47 -13.68)"/><path class="cls-19" d="M120.89,76.1s0,5-.13,5.61" transform="translate(-15.47 -13.68)"/><path class="cls-19" d="M120.38,85.16a36.91,36.91,0,0,1-.26,5.87" transform="translate(-15.47 -13.68)"/><path class="cls-19" d="M119.87,94.1s-.39,4.45-.39,5.23" transform="translate(-15.47 -13.68)"/></g><path class="cls-20" d="M111.17,97.7s-5.93-43.53,11.63-48.47a2.42,2.42,0,0,1,.6-.09c1.85,0,10.69.53,10.57,15.14a1.93,1.93,0,0,0,.07.53c.44,1.78,3.23,11.84,7.75,5.55a2.15,2.15,0,0,1,2.86-.59c1.1.7,1.71,2.45-.89,6.75a2.23,2.23,0,0,1-1.42,1c-2.14.48-7.38,1.84-7.28,3.77.12,2.43.12,16.09-.64,17.49S111,104.74,111.17,97.7Z" transform="translate(-15.47 -13.68)"/><polygon class="cls-22" points="67.73 4.47 66.73 0.63 68.66 4.1 67.73 4.47 67.73 4.47"/><polygon class="cls-22" points="63.98 6.68 61.54 3.54 64.69 5.97 63.98 6.68 63.98 6.68"/><polygon class="cls-22" points="59.07 17.44 55.16 15.13 59.48 16.53 59.07 17.44 59.07 17.44"/><polygon class="cls-22" points="60.57 12.14 57.68 9.41 61.16 11.34 60.57 12.14 60.57 12.14"/><polygon class="cls-22" points="57.26 22.7 53.38 21.42 57.45 21.72 57.26 22.7 57.26 22.7"/><polygon class="cls-22" points="56.03 31.55 52.27 29.84 56.33 30.6 56.03 31.55 56.03 31.55"/><polygon class="cls-22" points="55.83 39.13 52.3 38.24 55.94 38.14 55.83 39.13 55.83 39.13"/><polygon class="cls-22" points="55.7 44.73 51.65 45.22 55.46 43.76 55.7 44.73 55.7 44.73"/><polygon class="cls-22" points="55.55 52.69 51.41 51.81 55.64 51.69 55.55 52.69 55.55 52.69"/><polygon class="cls-22" points="56.11 59.84 51.81 58.19 56.36 58.88 56.11 59.84 56.11 59.84"/><polygon class="cls-22" points="56.65 65.58 52.3 66.04 56.43 64.61 56.65 65.58 56.65 65.58"/><polygon class="cls-22" points="57.05 74.89 53.41 71.78 57.62 74.06 57.05 74.89 57.05 74.89"/><polygon class="cls-22" points="72.98 3.69 74.44 0 73.95 3.94 72.98 3.69 72.98 3.69"/><polygon class="cls-22" points="77.25 5.99 79.7 3.48 78.06 6.58 77.25 5.99 77.25 5.99"/><polygon class="cls-22" points="79.92 10.43 83.14 9.32 80.38 11.31 79.92 10.43 79.92 10.43"/><polygon class="cls-22" points="81.94 17.77 85.65 15.32 82.58 18.54 81.94 17.77 81.94 17.77"/><polygon class="cls-22" points="83.59 25.38 87.4 23.08 84.2 26.17 83.59 25.38 83.59 25.38"/><polygon class="cls-22" points="84.19 34.64 88.39 33.8 84.5 35.59 84.19 34.64 84.19 34.64"/><polygon class="cls-22" points="84.33 42.24 87.87 41.58 84.64 43.19 84.33 42.24 84.33 42.24"/><polygon class="cls-22" points="84.83 47.33 88.6 47.43 84.93 48.32 84.83 47.33 84.83 47.33"/><polygon class="cls-22" points="85.25 52.17 88.44 54.21 84.83 53.08 85.25 52.17 85.25 52.17"/><polygon class="cls-22" points="84.83 62.12 88.98 59.93 85.38 62.95 84.83 62.12 84.83 62.12"/><polygon class="cls-22" points="84.96 68.05 88.56 67.5 85.24 69 84.96 68.05 84.96 68.05"/><polygon class="cls-22" points="84.29 77.32 88.15 75.05 84.89 78.12 84.29 77.32 84.29 77.32"/><polygon class="cls-22" points="104.84 36.44 103.79 34.07 105.66 35.86 104.84 36.44 104.84 36.44"/><polygon class="cls-22" points="102.16 38.95 100.6 36.89 102.83 38.2 102.16 38.95 102.16 38.95"/><polygon class="cls-22" points="99.07 42.09 98.41 39.59 99.97 41.66 99.07 42.09 99.07 42.09"/><polygon class="cls-22" points="97.73 45.72 95.3 43.17 98.35 44.93 97.73 45.72 97.73 45.72"/><polygon class="cls-22" points="96.95 48.18 93.57 47.18 97.09 47.19 96.95 48.18 96.95 48.18"/><polygon class="cls-22" points="95.48 54.81 92.89 52.43 96.04 53.99 95.48 54.81 95.48 54.81"/><polygon class="cls-22" points="95.07 60.19 91.92 58.64 95.38 59.24 95.07 60.19 95.07 60.19"/><polygon class="cls-22" points="94.33 67.35 91.57 65.16 94.83 66.49 94.33 67.35 94.33 67.35"/><polygon class="cls-22" points="95.31 72.75 91.83 72.23 95.32 71.75 95.31 72.75 95.31 72.75"/><polygon class="cls-22" points="94.94 79.66 92 77.72 95.36 78.75 94.94 79.66 94.94 79.66"/><polygon class="cls-22" points="107.53 35.59 108.56 33.22 108.51 35.8 107.53 35.59 107.53 35.59"/><polygon class="cls-22" points="110.61 35.8 112.58 34.12 111.39 36.42 110.61 35.8 110.61 35.8"/><polygon class="cls-22" points="114.72 38.36 116.02 35.96 115.67 38.67 114.72 38.36 114.72 38.36"/><polygon class="cls-22" points="116.42 40.91 118.84 40.52 116.78 41.84 116.42 40.91 116.42 40.91"/><polygon class="cls-22" points="117.98 45.65 120.19 44.6 118.58 46.44 117.98 45.65 117.98 45.65"/><polygon class="cls-22" points="118.26 49.98 120.67 49.53 118.64 50.91 118.26 49.98 118.26 49.98"/><polygon class="cls-22" points="119.02 52.85 121.55 51.33 119.68 53.61 119.02 52.85 119.02 52.85"/><polygon class="cls-22" points="120.19 56.14 121.46 54.95 121.05 56.64 120.19 56.14 120.19 56.14"/><polygon class="cls-22" points="128.85 55.6 130.12 54.4 129.72 56.1 128.85 55.6 128.85 55.6"/><polygon class="cls-22" points="127.15 56.07 127.14 54.33 128.1 55.78 127.15 56.07 127.15 56.07"/><polygon class="cls-22" points="125.03 57.56 125.03 55.31 126 57.34 125.03 57.56 125.03 57.56"/><polygon class="cls-22" points="122.23 58.75 123.21 56.42 123.21 58.95 122.23 58.75 122.23 58.75"/><polygon class="cls-22" points="129.84 57.45 132.35 57.33 130.08 58.42 129.84 57.45 129.84 57.45"/><polygon class="cls-22" points="129.34 60.13 131.45 59.52 129.82 61 129.34 60.13 129.34 60.13"/><polygon class="cls-22" points="128.34 62.14 130.51 62.79 128.28 63.14 128.34 62.14 128.34 62.14"/><polygon class="cls-22" points="126.93 63.57 127.72 65.16 126.2 64.25 126.93 63.57 126.93 63.57"/><polygon class="cls-22" points="124.85 64.86 124.55 66.61 123.86 64.97 124.85 64.86 124.85 64.86"/><polygon class="cls-22" points="120.31 66.3 121.84 67.05 120.15 67.28 120.31 66.3 120.31 66.3"/><polygon class="cls-22" points="119.43 70.19 121.12 69.11 120.16 70.87 119.43 70.19 119.43 70.19"/><polygon class="cls-22" points="120.01 73.66 122.2 74.04 120.06 74.65 120.01 73.66 120.01 73.66"/><polygon class="cls-22" points="119.03 78.97 121.46 78.41 119.44 79.88 119.03 78.97 119.03 78.97"/><path class="cls-23" d="M24.38,156s.12-1.68-1.79,0,1.15,4.11-1.92,5.51S12.76,158.78,19,156s3,4.71,1.17,2.52-.14-6.07,4.2-8,5,2.17,4.21,1.92-4.72,1.15-2.3-1.66,6.12-2.19,6.58-.26-2,3.45-2.62,1.92,3.32-5.48,6.13-3.57" transform="translate(-15.47 -13.68)"/><path class="cls-23" d="M64,148.36s5.87-2.05,5.36,3.06c0,0-1,3.06-3.19,0s1.08-4.21,3.22-4,4.7-1.41,5.33,3.32c0,0-6.76,2.14-2.93-3.91,0,0,1.66-4.29,5.87,0" transform="translate(-15.47 -13.68)"/><path class="cls-24" d="M75.7,150.52s35.68,13.28,62.93-.76c0,0,3.7-43.15,6-47.24,0,0-46.85,9.85-82,1.29C62.67,103.81,68.67,139,75.7,150.52Z" transform="translate(-15.47 -13.68)"/><g class="cls-25"><path class="cls-26" d="M77.61,105.71s-1.79,14.56.72,24.73c2.6,10.52,3.75,21.1,14.47,24.17h0l-40.68-5.74L49.4,100.29l23.43,4.45Z" transform="translate(-15.47 -13.68)"/><path class="cls-26" d="M130.29,103.67l13.87-2.24a1.54,1.54,0,0,1,1.93,1.64l-4.68,45.42a1.53,1.53,0,0,1-1,1.3l-14.81,4.8s9.83-1.6,11.07-7.93c0,0,4.54-32.18,5.16-40.61.15-2-1-1.91-2.51-1.7-4.27.61-11.45,1.62-12.38,1.32" transform="translate(-15.47 -13.68)"/></g><path class="cls-15" d="M75.7,150.52s35.68,13.28,62.93-.76c0,0,3.7-43.15,6-47.24,0,0-46.85,9.85-82,1.29C62.67,103.81,68.67,139,75.7,150.52Z" transform="translate(-15.47 -13.68)"/><path class="cls-24" d="M60.5,95.76a5.65,5.65,0,0,0,0,6.76s14.94,10.34,84.77,0c0,0,8.17-6.89,1.91-8.42C147.18,94.1,101,101.88,60.5,95.76Z" transform="translate(-15.47 -13.68)"/><g class="cls-27"><path class="cls-26" d="M74.05,97.31s-5.49,9,22.33,9.77h0l-44.94,3.1L47,91.4l23.87,2.7,3.21,3.21" transform="translate(-15.47 -13.68)"/><path class="cls-26" d="M146.61,94.45a2,2,0,0,1,1.4,2.41c-1.43,4.83-7.42,6-7.42,6l7.87.41,6.13-4.54-1.15-5.8-6.13-3.07Z" transform="translate(-15.47 -13.68)"/></g><path class="cls-15" d="M60.5,95.76a5.65,5.65,0,0,0,0,6.76s14.94,10.34,84.77,0c0,0,8.17-6.89,1.91-8.42C147.18,94.1,101,101.88,60.5,95.76Z" transform="translate(-15.47 -13.68)"/><path class="cls-23" d="M147.18,94.1" transform="translate(-15.47 -13.68)"/><path class="cls-23" d="M60.5,95.76" transform="translate(-15.47 -13.68)"/><path class="cls-28" d="M102.56,141.23c.76.16,2.5,6.1,2.5,7.51a4.39,4.39,0,0,1-1.41,2.68l.19,4.08c6.71,11.36,26.62,2.55,26.62,2.55,6.46-11.6-.89-24.41-4.25-29.26a6.17,6.17,0,0,0-4.22-2.63c-14.49-2.09-61.49,3.31-61.49,3.31C31.27,128.72,32.89,159,32.89,159c-1.37,2.05.84,5.46.84,5.46,11.58,6.63,24.77,2.25,26.77,1,2.21-1.41,2.64-1.7,2.17-6.77C62.06,152,66.9,146.9,66.9,146.9S84.65,137.46,102.56,141.23Z" transform="translate(-15.47 -13.68)"/><g class="cls-29"><path class="cls-30" d="M102.38,150.14l9.23,5.62s14.45.06,23.89-2.94L131.87,160l-20.17,5-13-3.38Z" transform="translate(-15.47 -13.68)"/><path class="cls-31" d="M121.63,126.06s16.62,16.38,6.66,32.25c-10.25,16.33,1.23.13,1.23.13l8.13-.94.85-12.17-2.63-14.21L129.06,123l-10.22,2.3,3.15.83" transform="translate(-15.47 -13.68)"/><path class="cls-31" d="M111.38,155.28s-.48-4.07,0-5.52-.65-8-8-8.9-.34.87-.34.87,3.16,6,1.91,7.83-1.56,1.86-1.56,1.86S106.48,156,111.38,155.28Z" transform="translate(-15.47 -13.68)"/><path class="cls-31" d="M59.1,157.76s-3.2-5.27,6.57-10.89h0l1.68,8.5-3,.83a.21.21,0,0,0-.19,0Z" transform="translate(-15.47 -13.68)"/><path class="cls-31" d="M59,157.59s1.41,2.56.61,3.22l5.31-1.13.38-3.64-3.15-1.47Z" transform="translate(-15.47 -13.68)"/><path class="cls-30" d="M65.87,166.61c0-.64-1.43-6.83-1.43-6.83l-6.15,1.69s-11.57,2.46-26.38-3l-1.85,9.62,11,2.44,25.85.83Z" transform="translate(-15.47 -13.68)"/><path class="cls-31" d="M58.17,166s3.89-1.72,1.38-4.66l5.77-2.53,1.14,4.72-2.56,5.75Z" transform="translate(-15.47 -13.68)"/><path class="cls-31" d="M113.48,163.42s-3-4.76-2.1-8.14l-9.51-5.14-1.41,8.17Z" transform="translate(-15.47 -13.68)"/><path class="cls-31" d="M32.93,152.17s.15-.11,1.28-.08c.76,0,1.7,6.52-.29,6.35a9.31,9.31,0,0,0-2.1,0Z" transform="translate(-15.47 -13.68)"/><path class="cls-31" d="M124.78,129.36s-1.4-2.45-8.23-3.09c-6.39-.6-.06-.54-.06-.54l8.23-3.74,6.05,1.15Z" transform="translate(-15.47 -13.68)"/></g><path class="cls-32" d="M102.56,141.23c.76.16,2.5,6.1,2.5,7.51a4.39,4.39,0,0,1-1.41,2.68l.19,4.08c6.71,11.36,26.62,2.55,26.62,2.55,6.46-11.6-.89-24.41-4.25-29.26a6.17,6.17,0,0,0-4.22-2.63c-14.49-2.09-61.49,3.31-61.49,3.31C31.27,128.72,32.89,159,32.89,159c-1.37,2.05.84,5.46.84,5.46,11.58,6.63,24.77,2.25,26.77,1,2.21-1.41,2.64-1.7,2.17-6.77C62.06,152,66.9,146.9,66.9,146.9S84.65,137.46,102.56,141.23Z" transform="translate(-15.47 -13.68)"/><path class="cls-33" d="M59.36,154s1.44-8.85,23.91-13.11,28.6,3.92,28.08,8.68" transform="translate(-15.47 -13.68)"/><path class="cls-32" d="M103.65,151.42s1.7,8.57,28.62,2.24" transform="translate(-15.47 -13.68)"/><path class="cls-32" d="M62.86,160.17c-14.42,5.37-30-1.73-30-1.73" transform="translate(-15.47 -13.68)"/><path class="cls-34" d="M34,152.44s1.08,4.54-.35,5.37-9.19-.1-9.3-.93a4.23,4.23,0,0,1,2.73-3.83A46.92,46.92,0,0,1,34,152.44Z" transform="translate(-15.47 -13.68)"/><g class="cls-35"><path class="cls-36" d="M24.38,156.68s8.06.86,9.34-1.64l.45,4.71-7-.13-3-1.66Z" transform="translate(-15.47 -13.68)"/><path class="cls-36" d="M32.87,152.05a3.26,3.26,0,0,1,.24,4c-1.28,1.67,2.92,2.5,2.92,2.5l.23-4.28-.93-3.7Z" transform="translate(-15.47 -13.68)"/></g><path class="cls-37" d="M34,152.44s1.08,4.54-.35,5.37-9.19-.1-9.3-.93a4.23,4.23,0,0,1,2.73-3.83A46.92,46.92,0,0,1,34,152.44Z" transform="translate(-15.47 -13.68)"/></svg>