<svg id="Layer_3" data-name="Layer 3" xmlns="http://www.w3.org/2000/svg" xmlns:xlink="http://www.w3.org/1999/xlink" viewBox="0 0 685.87 206.33"><defs><style>.cls-1,.cls-17{fill:#91bf77;}.cls-1,.cls-20,.cls-23,.cls-44,.cls-63,.cls-9{stroke:#063;}.cls-1,.cls-10,.cls-11,.cls-12,.cls-13,.cls-14,.cls-15,.cls-2,.cls-20,.cls-23,.cls-27,.cls-3,.cls-34,.cls-36,.cls-4,.cls-40,.cls-44,.cls-5,.cls-50,.cls-54,.cls-59,.cls-6,.cls-63,.cls-7,.cls-8,.cls-9{stroke-miterlimit:10;}.cls-1,.cls-10,.cls-11,.cls-12,.cls-13,.cls-14,.cls-15,.cls-2,.cls-20,.cls-23,.cls-27,.cls-34,.cls-5,.cls-50,.cls-63,.cls-7{stroke-width:0.5px;}.cls-2,.cls-47{fill:#565656;}.cls-2,.cls-50{stroke:#262625;}.cls-24,.cls-3,.cls-7{fill:#7f5b46;}.cls-27,.cls-3,.cls-54,.cls-7{stroke:#6d4b35;}.cls-37,.cls-4{fill:#895b3d;}.cls-4,.cls-40{stroke:#6d4224;}.cls-31,.cls-5,.cls-6{fill:#648e66;}.cls-34,.cls-5,.cls-59,.cls-6{stroke:#32682f;}.cls-28,.cls-8{fill:#d3cac2;}.cls-36,.cls-8{stroke:#b2937d;stroke-width:0.75px;}.cls-41,.cls-9{fill:#579364;}.cls-10{fill:#416841;}.cls-10,.cls-11,.cls-12,.cls-13,.cls-14{stroke:#073f22;}.cls-11{fill:#598259;}.cls-12{fill:#335933;}.cls-13{fill:#264426;}.cls-14{fill:#1c3a1c;}.cls-15{fill:#68995c;stroke:#29631f;}.cls-16{fill:#29631f;}.cls-18{clip-path:url(#clip-path);}.cls-19{fill:#7aa35a;}.cls-20,.cls-27,.cls-34,.cls-36,.cls-40,.cls-44,.cls-50,.cls-54,.cls-59{fill:none;}.cls-21{clip-path:url(#clip-path-2);}.cls-22{fill:#063;}.cls-23{fill:#508240;}.cls-25{clip-path:url(#clip-path-3);}.cls-26{fill:#6b4d3e;}.cls-29{clip-path:url(#clip-path-4);}.cls-30{fill:#aa9a8c;}.cls-32{clip-path:url(#clip-path-5);}.cls-33{fill:#4f7250;}.cls-35{clip-path:url(#clip-path-6);}.cls-38{clip-path:url(#clip-path-7);}.cls-39{fill:#7a4c35;}.cls-42{clip-path:url(#clip-path-8);}.cls-43{fill:#407049;}.cls-45{clip-path:url(#clip-path-9);}.cls-46{clip-path:url(#clip-path-10);}.cls-48{clip-path:url(#clip-path-11);}.cls-49{fill:#474646;}.cls-51{clip-path:url(#clip-path-12);}.cls-52{fill:#724f41;}.cls-53{fill:#baa695;}.cls-55{clip-path:url(#clip-path-13);}.cls-56{clip-path:url(#clip-path-14);}.cls-57{fill:#496b4a;}.cls-58{clip-path:url(#clip-path-15);}.cls-60{fill:#32682f;}.cls-61{clip-path:url(#clip-path-16);}.cls-62{clip-path:url(#clip-path-17);}.cls-63{fill:#72aa63;}</style><clipPath id="clip-path" transform="translate(-62.73 -24.48)"><path class="cls-1" d="M342.65,181.11S332,142.46,353.19,139c0,0,26-7.57,17.52,40.2l-6.85,12.62-17.34,3Z"/></clipPath><clipPath id="clip-path-2" transform="translate(-62.73 -24.48)"><path class="cls-1" d="M384.45,183.75S371.54,96.6,409,90c0,0,38.8-3.76,13.16,91.63l-9,11.8-20.11.63Z"/></clipPath><clipPath id="clip-path-3" transform="translate(-62.73 -24.48)"><path class="cls-7" d="M545.79,210s4.41-3.55,7.91.06l-3.15,11.76a.93.93,0,0,1-1.79,0C547.68,218.54,546.06,213.1,545.79,210Z"/></clipPath><clipPath id="clip-path-4" transform="translate(-62.73 -24.48)"><path class="cls-8" d="M516.67,155.52c9.25.43,47.88,2,63.89-1.07a1.68,1.68,0,0,1,2,1.46c1.16,10.19,4.94,59.38-30.41,59.12,0,0-45.06,7.3-37.73-57.57A2.19,2.19,0,0,1,516.67,155.52Z"/></clipPath><clipPath id="clip-path-5" transform="translate(-62.73 -24.48)"><path class="cls-5" d="M513.51,169.8s32,6.93,71.77.94l-.59,3.59s-31.14,6.37-70.92-.54Z"/></clipPath><clipPath id="clip-path-6" transform="translate(-62.73 -24.48)"><path class="cls-5" d="M513.77,163.29s32.63,8.5,71.33.23v4s-31.64,6.81-71.42-.11Z"/></clipPath><clipPath id="clip-path-7" transform="translate(-62.73 -24.48)"><path class="cls-4" d="M215.28,181.29c-.49-.47,38.31,6.49,53.09,0,0,0-4.25,20.38-3.36,33.6,0,0-.89,8.29-21.95,9.41,0,0-24.2-1.79-24.42-10.59C218.64,213.71,219.09,184.87,215.28,181.29Z"/></clipPath><clipPath id="clip-path-8" transform="translate(-62.73 -24.48)"><path class="cls-9" d="M85.36,111.21s33-14.37,66-.12c0,0-10.43,105.16-12.22,106,0,0-7.18,8.26-22.63,6.69,0,0-17.92-.86-24.42-8.25Z"/></clipPath><clipPath id="clip-path-9" transform="translate(-62.73 -24.48)"><path class="cls-7" d="M560.29,213.92c1.49-2,5.71-6.84,11.17-5a1,1,0,0,1,.58.54l5.7,13.54a.94.94,0,0,1-1.32,1.18l-15.82-8.86A.93.93,0,0,1,560.29,213.92Z"/></clipPath><clipPath id="clip-path-10" transform="translate(-62.73 -24.48)"><path class="cls-7" d="M540.74,213.36c-1.42-2-5.71-7-11.3-5.14a.83.83,0,0,0-.5.47l-5.86,13.91a.82.82,0,0,0,1.15,1l16.24-9.09A.81.81,0,0,0,540.74,213.36Z"/></clipPath><clipPath id="clip-path-11" transform="translate(-62.73 -24.48)"><path class="cls-2" d="M690.89,135.33s5,80.8,5.88,82.45c0,0,1.39,3,2.11-1.43s.82-81.24.82-81.24Z"/></clipPath><clipPath id="clip-path-12" transform="translate(-62.73 -24.48)"><path class="cls-3" d="M654.87,65.84c12.54-2.36,54-9.1,80-.58a3.92,3.92,0,0,1,2.72,4.12c-1.27,13.13-6.87,64.24-16.84,65.43,0,0-35,3.86-51.53-.66,0,0-10.63,1.27-17.77-63.8A4.16,4.16,0,0,1,654.87,65.84Z"/></clipPath><clipPath id="clip-path-13" transform="translate(-62.73 -24.48)"><path class="cls-4" d="M272.53,165.33a1.55,1.55,0,0,1,1.9,1.94c-.62,3.33-1.92,9.17-3.93,13-2.46,4.7-45.17,4.42-56.84.7a3.69,3.69,0,0,1-2.32-2.24,103.24,103.24,0,0,1-3.46-10.84c-.19-.88.68-2.54,1.57-2.41C217.47,166.7,251.66,168.91,272.53,165.33Z"/></clipPath><clipPath id="clip-path-14" transform="translate(-62.73 -24.48)"><path class="cls-5" d="M427.51,223.9s-59.29,2.24-86.25-.32V220.2l86.25.49Z"/></clipPath><clipPath id="clip-path-15" transform="translate(-62.73 -24.48)"><path class="cls-6" d="M341.26,220.2c0,.55,73.83.75,84.86.16a3.58,3.58,0,0,0,2.27-1c5.38-5,33.11-32,16-41.74a4.82,4.82,0,0,0-3.07-.59c-8.12,1.12-49.73,6.05-112.28-.73a4.67,4.67,0,0,0-3.07.71C321.73,179.84,312.27,189.92,341.26,220.2Z"/></clipPath><clipPath id="clip-path-16" transform="translate(-62.73 -24.48)"><path class="cls-2" d="M671.72,134.85a1.07,1.07,0,0,0-1.31,1c-.94,10.25-7.57,82.42-7.65,86.86,0,0,.75,3.75,3.15-3.08,2.26-6.43,11-74.72,12-82.63a.8.8,0,0,0-.65-.9Z"/></clipPath><clipPath id="clip-path-17" transform="translate(-62.73 -24.48)"><path class="cls-2" d="M718.11,135.06a1.24,1.24,0,0,1,1.38,1c1.68,10,13.66,81,14.07,85.39,0,0-.49,3.76-3.43-2.81-2.7-6.07-16.4-71.3-18.52-81.43a1.24,1.24,0,0,1,1.06-1.49Z"/></clipPath></defs><path class="cls-10" d="M125.62,60.66s-8.42,9.75-5.7,21c.74,3,6.5,3.79,6.5,3.79l5.72-.53S133.5,75,125.62,60.66Z" transform="translate(-62.73 -24.48)"/><path class="cls-10" d="M139,64.58s7.26,16.84-1.85,21-1.05-.49-1.05-.49l-4.3-3.22S132.14,75.06,139,64.58Z" transform="translate(-62.73 -24.48)"/><path class="cls-11" d="M109.57,64s-9.77,20.47,1.29,26,1.32-.55,1.32-.55l7.19-2.38S117.6,77.3,109.57,64Z" transform="translate(-62.73 -24.48)"/><path class="cls-12" d="M154.9,76.28s5.09,20.66-8.48,23.11L138.25,99S149,89.58,154.9,76.28Z" transform="translate(-62.73 -24.48)"/><path class="cls-12" d="M144.26,75s5.3,18.83-.27,23.48L133.5,93.84S136.76,90.36,144.26,75Z" transform="translate(-62.73 -24.48)"/><path class="cls-12" d="M133.08,71.75s5.35,19.27,1.29,22.09l-12.09-1.73S125.28,86.58,133.08,71.75Z" transform="translate(-62.73 -24.48)"/><path class="cls-12" d="M117.36,69.31S106.52,90.84,114,93.84l7.06,1.49S127.36,84.14,117.36,69.31Z" transform="translate(-62.73 -24.48)"/><path class="cls-12" d="M102,72.31s-7.5,21.53,0,24.53l11.33.58S112.4,86.31,102,72.31Z" transform="translate(-62.73 -24.48)"/><path class="cls-12" d="M90.51,74.17s-6,23.67,10.33,26.56l9.81-.36S97.67,89.46,90.51,74.17Z" transform="translate(-62.73 -24.48)"/><path class="cls-13" d="M94.87,78.21s-4.83,20.22,7.7,22.52l7.56-.41A70.52,70.52,0,0,1,94.87,78.21Z" transform="translate(-62.73 -24.48)"/><path class="cls-13" d="M162.42,83.51s0,16-12.32,22.52c-11.64,6.14-2.51-.93-2.51-.93l-8.28-5.42S152.07,98.47,162.42,83.51Z" transform="translate(-62.73 -24.48)"/><path class="cls-13" d="M150.77,80.26s.7,16.09-8.94,23.59c-10.38,8.08-.45-.09-.45-.09l-10.12-1.55A253.73,253.73,0,0,0,150.77,80.26Z" transform="translate(-62.73 -24.48)"/><path class="cls-13" d="M137.7,76s5.1,19.35-6.57,25.43-.45-.09-.45-.09l-10.12-1.55S132.42,89.92,137.7,76Z" transform="translate(-62.73 -24.48)"/><path class="cls-13" d="M125.66,73.9s-10.73,13.49-5.38,25.52c1.22,2.73,3.19.25,3.19.25l2.32,1.33A36.54,36.54,0,0,0,125.66,73.9Z" transform="translate(-62.73 -24.48)"/><path class="cls-13" d="M109,76s-8.56,21.47,3.79,26,1.36-.67,1.36-.67l5.38.11A50,50,0,0,0,109,76Z" transform="translate(-62.73 -24.48)"/><path class="cls-13" d="M80.5,82.26s-1.89,24.33,14.67,24.43l9.61-2S90.15,96.12,80.5,82.26Z" transform="translate(-62.73 -24.48)"/><path class="cls-14" d="M139.93,101.88s19.29,0,24.64-9.41c0,0-2.85,14.48-17.59,17.93l-12.52-.71Z" transform="translate(-62.73 -24.48)"/><path class="cls-14" d="M129.91,103.44s18.7-5.7,24.4-15.61c0,0-4.48,19.12-13.26,19.88s-11.72-1.17-11.72-1.17Z" transform="translate(-62.73 -24.48)"/><path class="cls-14" d="M93.45,111.48S78,112.05,76.48,91c0-.22,0-.44,0-.67,0,0,11.77,14.85,23.61,16.4C100.05,106.76,99.15,112.69,93.45,111.48Z" transform="translate(-62.73 -24.48)"/><path class="cls-14" d="M87.44,84.14s-1.89,24.33,14.67,24.43l9.61-2S97.09,98,87.44,84.14Z" transform="translate(-62.73 -24.48)"/><path class="cls-14" d="M102.77,81.61S97,102.5,109.34,107.05s.45-.09.45-.09l10.13-1.55A152,152,0,0,1,102.77,81.61Z" transform="translate(-62.73 -24.48)"/><path class="cls-14" d="M115.72,106.75s-3.58-9.13.6-24.71c0,0,8,13.16,8.06,14.17,0,0,3.09-9.81,7.46-14.35,0,0,1.29,10.4.09,15,0,0,7.07-6.64,10.87-12.16,0,0-3.38,20.53-11.69,22.42Z" transform="translate(-62.73 -24.48)"/><path class="cls-15" d="M261.59,123c2.53,1.84,5.79-1.85,8.88-5.7,4.81-6,4.38-15.33.67-16.2-3.1-.73-8.83,8.31-9.34,13.37C261.21,120.45,260.16,122,261.59,123Z" transform="translate(-62.73 -24.48)"/><path class="cls-15" d="M259.06,127.91a1.42,1.42,0,0,1,1.76-1c2,.57,6.6.62,15.79-4.59,0,0,7.07-4,5,4.73s-16.6,6-16.6,6-5.5-.26-7.11-1.93c-.33-.34.16-.72.28-1.18Z" transform="translate(-62.73 -24.48)"/><path class="cls-15" d="M258.93,127.94c.44-.67.89-1.18.65-1.24-2-.53-.48-10.16-2.7-20.48,0,0-2.06-5.58-5.9.19-4.19,6.27,1.86,19.12,1.86,19.12s1.5,4.64,3.82,4.73a1.36,1.36,0,0,0,1.17-.66Z" transform="translate(-62.73 -24.48)"/><path class="cls-15" d="M253.25,140.13a1.26,1.26,0,0,1,1.61-.66c1.8.57,5.95.9,14.31-2.46,0,0,6.43-2.6,4.45,3.93s-15.06,3.47-15.06,3.47-4.12-.45-5.55-1.83a1,1,0,0,1-.25-1Z" transform="translate(-62.73 -24.48)"/><path class="cls-15" d="M253,140a1.06,1.06,0,0,0-.32-1.49c-1.33-.81-3.77-1.16-5.5-8.9,0,0-1.22-8.11-5-2.47s5,12.22,5,12.22,2.4,2.41,4.14,2.43a1.05,1.05,0,0,0,.88-.51Z" transform="translate(-62.73 -24.48)"/><path class="cls-15" d="M242.42,168.35s4.77-9.4,10.49-13,11.2-5.18,10.51,1-11.3,13.1-11.3,13.1L241.94,172Z" transform="translate(-62.73 -24.48)"/><path class="cls-15" d="M225,112c-1.6,2.14-6.85-2.17-11.49-6.74-7.24-7.11-8.12-19.41-3.38-21.12,3.94-1.43,12.84,9.52,14.29,16.07C226.14,108,226.48,110.1,225,112Z" transform="translate(-62.73 -24.48)"/><path class="cls-15" d="M225.59,113.32s3.06-5.94,3.79-10.55c.46-2.94,2.39-15.65,5.34-14.59,3.14,1.12,8.42,7.48,3.26,16.14,0,0-8.35,12.71-10.45,12.71C226.57,117,225.22,113.14,225.59,113.32Z" transform="translate(-62.73 -24.48)"/><path class="cls-15" d="M226.28,117.81s-6.92,3.27-13.72,2.15-10.08-2.91-11-6.2-.9-8.22,1.86-9.19,6.42,1.8,7.62,3,11.91,7.57,14.62,6.88C225.69,114.44,227.83,117.9,226.28,117.81Z" transform="translate(-62.73 -24.48)"/><path class="cls-15" d="M229.94,123.8s5.09-4.65,7.36-8.84c1.45-2.68,7.62-14.25,10.29-12.2,2.83,2.18,6.11,10.16-2,16.71,0,0-14.11,10.72-14.87,8.58C230.32,127,229.63,123.5,229.94,123.8Z" transform="translate(-62.73 -24.48)"/><path class="cls-15" d="M230.46,128.16s-6.89.05-11.4-1.48c-2.88-1-15.28-5.26-15.84-1.94-.59,3.52,2.43,11.6,12.84,10.87,0,0,17-1.47,16.07-3.56C231.69,131,230.49,127.73,230.46,128.16Z" transform="translate(-62.73 -24.48)"/><path class="cls-15" d="M235.25,140.05s5.09-4.65,7.36-8.83c1.45-2.68,7.62-14.25,10.28-12.2,2.83,2.18,6.11,10.15-2,16.7,0,0-14.11,10.73-14.87,8.59C235.63,143.26,234.94,139.76,235.25,140.05Z" transform="translate(-62.73 -24.48)"/><path class="cls-15" d="M235.37,148s-6.79-1.18-11-3.49c-2.66-1.47-14.09-7.9-15.23-4.74-1.22,3.36.32,11.85,10.69,13,0,0,16.95,1.58,16.45-.63C236.07,151,235.47,147.54,235.37,148Z" transform="translate(-62.73 -24.48)"/><path class="cls-16" d="M241.13,169.35C247,151.41,254.54,134,264.56,118a220.14,220.14,0,0,0-17.29,38.54c-1.53,4.43-3,8.92-4.22,13.41l-1.92-.55Z" transform="translate(-62.73 -24.48)"/><path class="cls-16" d="M237.39,168.93a196.14,196.14,0,0,0-4.4-31.61c-2.41-10.39-5.71-20.65-11.06-29.94,8.42,13.77,12.6,29.67,15.38,45.45.9,5.3,1.63,10.6,2.08,16l-2,.1Z" transform="translate(-62.73 -24.48)"/><path class="cls-15" d="M237,152s5.58-2.4,8.52-5.24c1.89-1.82,9.95-9.7,11.9-7.19,2.06,2.68,3.28,10.36-5.45,13.44,0,0-14.34,4.79-14.56,2.77C237.34,154.75,236.82,151.63,237,152Z" transform="translate(-62.73 -24.48)"/><path class="cls-17" d="M342.65,181.11S332,142.46,353.19,139c0,0,26-7.57,17.52,40.2l-6.85,12.62-17.34,3Z" transform="translate(-62.73 -24.48)"/><g class="cls-18"><path class="cls-19" d="M355.83,138.07a256.06,256.06,0,0,0-.95,45.17s-15.88-.9-16.15-.9-4.64-17.74-4.64-17.74L334,138.07l15.73-3.56,6.12,3.78.2-4" transform="translate(-62.73 -24.48)"/></g><path class="cls-20" d="M342.65,181.11S332,142.46,353.19,139c0,0,26-7.57,17.52,40.2l-6.85,12.62-17.34,3Z" transform="translate(-62.73 -24.48)"/><path class="cls-17" d="M384.45,183.75S371.54,96.6,409,90c0,0,38.8-3.76,13.16,91.63l-9,11.8-20.11.63Z" transform="translate(-62.73 -24.48)"/><g class="cls-21"><path class="cls-19" d="M409.41,87.75S398.48,137,398.73,187.52l-31.1-.58L369,96.58l20.6-10.31Z" transform="translate(-62.73 -24.48)"/></g><path class="cls-20" d="M384.45,183.75S371.54,96.6,409,90c0,0,38.8-3.76,13.16,91.63l-9,11.8-20.11.63Z" transform="translate(-62.73 -24.48)"/><path class="cls-20" d="M355.4,138.71a49.1,49.1,0,0,0-.48,8.13" transform="translate(-62.73 -24.48)"/><path class="cls-20" d="M354.25,150.31v6.27" transform="translate(-62.73 -24.48)"/><path class="cls-20" d="M354.25,160.73s-.14,5.71-.12,6.6" transform="translate(-62.73 -24.48)"/><path class="cls-20" d="M354.25,171.93s-.33,6.49,0,7.28" transform="translate(-62.73 -24.48)"/><path class="cls-20" d="M409,90a39,39,0,0,0-1.53,8.37" transform="translate(-62.73 -24.48)"/><path class="cls-20" d="M406.1,102.82s-1.44,7.72-1.33,9.74" transform="translate(-62.73 -24.48)"/><path class="cls-20" d="M403.54,119s-1.35,6.31-.9,10.27" transform="translate(-62.73 -24.48)"/><path class="cls-20" d="M401.86,134.51s-.68,4.26-1,9.19" transform="translate(-62.73 -24.48)"/><path class="cls-20" d="M400.06,150.31s-.47,5.49-.57,10.42" transform="translate(-62.73 -24.48)"/><path class="cls-20" d="M398.81,166.33s-.35,6.27,0,7.5" transform="translate(-62.73 -24.48)"/><line class="cls-20" x1="335.93" y1="151.83" x2="335.93" y2="156.97"/><path class="cls-20" d="M458.54,138.64" transform="translate(-62.73 -24.48)"/><polygon class="cls-22" points="289.56 114.68 288.76 109.51 290.05 114.58 289.56 114.68 289.56 114.68"/><polygon class="cls-22" points="285.93 116.16 284.13 112.01 286.38 115.93 285.93 116.16 285.93 116.16"/><polygon class="cls-22" points="282.83 118.64 280.22 113.82 283.26 118.38 282.83 118.64 282.83 118.64"/><polygon class="cls-22" points="280.78 120.91 277.77 118.07 281.1 120.53 280.78 120.91 280.78 120.91"/><polygon class="cls-22" points="278.9 124.64 276.36 122.91 279.15 124.21 278.9 124.64 278.9 124.64"/><polygon class="cls-22" points="278.24 126.93 274.65 126.5 278.27 126.43 278.24 126.93 278.24 126.93"/><polygon class="cls-22" points="277.63 130.65 274.28 128.96 277.83 130.19 277.63 130.65 277.63 130.65"/><polygon class="cls-22" points="277.78 133.66 274.2 133.06 277.83 133.16 277.78 133.66 277.78 133.66"/><polygon class="cls-22" points="277.24 137.96 273.66 137.37 277.28 137.47 277.24 137.96 277.24 137.96"/><polygon class="cls-22" points="277.28 140.8 273.69 141.29 277.18 140.31 277.28 140.8 277.28 140.8"/><polygon class="cls-22" points="277.71 145.4 273.14 143.89 277.84 144.92 277.71 145.4 277.71 145.4"/><polygon class="cls-22" points="278.24 147.76 274.48 147.38 278.25 147.26 278.24 147.76 278.24 147.76"/><polygon class="cls-22" points="278.44 150.17 275.62 150.26 278.38 149.67 278.44 150.17 278.44 150.17"/><polygon class="cls-22" points="296.13 114.19 297.23 109.05 296.62 114.27 296.13 114.19 296.13 114.19"/><polygon class="cls-22" points="298.83 114.55 300.2 111.23 299.3 114.7 298.83 114.55 298.83 114.55"/><polygon class="cls-22" points="301.48 115.91 303.83 113.19 301.88 116.21 301.48 115.91 301.48 115.91"/><polygon class="cls-22" points="303.4 118.09 306.23 115.89 303.73 118.46 303.4 118.09 303.4 118.09"/><polygon class="cls-22" points="305.82 119.7 309.2 118.5 306.02 120.16 305.82 119.7 305.82 119.7"/><polygon class="cls-22" points="307.45 122.7 310.27 121.53 307.68 123.14 307.45 122.7 307.45 122.7"/><polygon class="cls-22" points="308.13 125.82 311.18 125.59 308.21 126.31 308.13 125.82 308.13 125.82"/><polygon class="cls-22" points="308.85 129.93 312.5 128.46 309.06 130.38 308.85 129.93 308.85 129.93"/><polygon class="cls-22" points="309.54 130.44 311.95 131.21 309.44 130.93 309.54 130.44 309.54 130.44"/><polygon class="cls-22" points="309.52 133.62 311.86 133.15 309.67 134.1 309.52 133.62 309.52 133.62"/><polygon class="cls-22" points="309.64 136.54 312.64 135.72 309.81 137.01 309.64 136.54 309.64 136.54"/><polygon class="cls-22" points="309.37 140.75 312.74 140.12 309.5 141.23 309.37 140.75 309.37 140.75"/><polygon class="cls-22" points="309.52 143.95 311.86 143.59 309.65 144.44 309.52 143.95 309.52 143.95"/><polygon class="cls-22" points="309.17 146.57 312.75 147.33 309.1 147.07 309.17 146.57 309.17 146.57"/><polygon class="cls-22" points="308.43 149.48 312.07 149.06 308.52 149.97 308.43 149.48 308.43 149.48"/><polygon class="cls-22" points="308.44 151.66 312.09 151.74 308.46 152.16 308.44 151.66 308.44 151.66"/><polygon class="cls-22" points="320.73 152.49 316.54 151.58 320.81 151.99 320.73 152.49 320.73 152.49"/><polygon class="cls-22" points="320.58 149.61 316.54 147.33 320.8 149.16 320.58 149.61 320.58 149.61"/><polygon class="cls-22" points="320.07 146.29 316.28 145.15 320.19 145.81 320.07 146.29 320.07 146.29"/><polygon class="cls-22" points="320.27 142.88 316.92 142.07 320.36 142.38 320.27 142.88 320.27 142.88"/><polygon class="cls-22" points="320.03 140.88 317.2 139.58 320.2 140.41 320.03 140.88 320.03 140.88"/><polygon class="cls-22" points="319.86 137.8 315.92 137.88 319.81 137.3 319.86 137.8 319.86 137.8"/><polygon class="cls-22" points="319.83 135.8 316.92 135.42 319.85 135.3 319.83 135.8 319.83 135.8"/><polygon class="cls-22" points="319.7 133.21 316.59 131.21 319.94 132.77 319.7 133.21 319.7 133.21"/><polygon class="cls-22" points="319.7 128.27 316.04 127.74 319.74 127.77 319.7 128.27 319.7 128.27"/><polygon class="cls-22" points="319.69 125.14 317.46 124.61 319.75 124.64 319.69 125.14 319.69 125.14"/><polygon class="cls-22" points="319.4 122.6 317.13 120.22 319.74 122.23 319.4 122.6 319.4 122.6"/><polygon class="cls-22" points="319.91 117.98 316.74 117.08 320.01 117.49 319.91 117.98 319.91 117.98"/><polygon class="cls-22" points="320.25 113.83 316.96 114.04 320.18 113.34 320.25 113.83 320.25 113.83"/><polygon class="cls-22" points="319.9 111.82 316.74 110.89 320.01 111.33 319.9 111.82 319.9 111.82"/><polygon class="cls-22" points="320.02 109.89 317.06 108.44 320.21 109.42 320.02 109.89 320.02 109.89"/><polygon class="cls-22" points="320.51 106.68 317.54 105.23 320.69 106.22 320.51 106.68 320.51 106.68"/><polygon class="cls-22" points="320.9 103.75 317.46 101.97 321.1 103.29 320.9 103.75 320.9 103.75"/><polygon class="cls-22" points="321.88 100.19 317.89 100.64 321.8 99.7 321.88 100.19 321.88 100.19"/><polygon class="cls-22" points="322.13 97.86 317.57 97.19 322.18 97.36 322.13 97.86 322.13 97.86"/><polygon class="cls-22" points="322.59 96.59 319.35 95.52 322.71 96.11 322.59 96.59 322.59 96.59"/><polygon class="cls-22" points="327.36 81.29 324.48 79.44 327.6 80.85 327.36 81.29 327.36 81.29"/><polygon class="cls-22" points="326.85 82.55 323.44 82.43 326.83 82.05 326.85 82.55 326.85 82.55"/><polygon class="cls-22" points="328.3 79.57 325.98 76.58 328.67 79.24 328.3 79.57 328.3 79.57"/><polygon class="cls-22" points="330.17 76.81 327.65 75.63 330.35 76.34 330.17 76.81 330.17 76.81"/><polygon class="cls-22" points="331.15 75.19 329.2 73.19 331.48 74.81 331.15 75.19 331.15 75.19"/><polygon class="cls-22" points="340.95 67.16 339.99 64.55 341.41 66.95 340.95 67.16 340.95 67.16"/><polygon class="cls-22" points="343.53 65.98 343.23 62.7 344.02 65.89 343.53 65.98 343.53 65.98"/><polygon class="cls-22" points="350.39 65.8 350.86 63.27 350.89 65.85 350.39 65.8 350.39 65.8"/><polygon class="cls-22" points="351.92 66.52 353.78 63.59 352.36 66.76 351.92 66.52 351.92 66.52"/><polygon class="cls-22" points="354.22 67.26 355.3 65.8 354.66 67.5 354.22 67.26 354.22 67.26"/><polygon class="cls-22" points="356.03 68.42 357.8 66.34 356.44 68.71 356.03 68.42 356.03 68.42"/><polygon class="cls-22" points="357.78 69.44 359.54 68.16 358.12 69.81 357.78 69.44 357.78 69.44"/><polygon class="cls-22" points="366.22 84.56 368.61 83.25 366.5 84.98 366.22 84.56 366.22 84.56"/><polygon class="cls-22" points="366.48 86.75 369.8 85.61 366.67 87.21 366.48 86.75 366.48 86.75"/><polygon class="cls-22" points="367.09 89.22 369.26 88.25 367.34 89.65 367.09 89.22 367.09 89.22"/><polygon class="cls-22" points="367.65 91.3 369.7 91.03 367.78 91.78 367.65 91.3 367.65 91.3"/><polygon class="cls-22" points="368.11 107.36 371.46 107.87 368.07 107.86 368.11 107.36 368.11 107.36"/><polygon class="cls-22" points="368.12 109.81 371.19 109.57 368.2 110.3 368.12 109.81 368.12 109.81"/><polygon class="cls-22" points="367.8 112.24 370.23 112.33 367.83 112.74 367.8 112.24 367.8 112.24"/><polygon class="cls-22" points="367.52 115.17 369.94 114.73 367.65 115.65 367.52 115.17 367.52 115.17"/><polygon class="cls-22" points="367.75 116.71 369.94 118.01 367.53 117.16 367.75 116.71 367.75 116.71"/><polygon class="cls-22" points="367.23 119.81 370.25 119.56 367.32 120.3 367.23 119.81 367.23 119.81"/><polygon class="cls-22" points="366.83 121.88 369.79 122.36 366.79 122.38 366.83 121.88 366.83 121.88"/><polygon class="cls-22" points="366.88 124.11 368.62 124.86 366.74 124.59 366.88 124.11 366.88 124.11"/><polygon class="cls-22" points="366.5 126.51 368.46 128.5 366.18 126.89 366.5 126.51 366.5 126.51"/><polygon class="cls-22" points="365.71 130.04 368.3 131.09 365.57 130.52 365.71 130.04 365.71 130.04"/><polygon class="cls-22" points="365.2 133.23 368.42 133.75 365.15 133.73 365.2 133.23 365.2 133.23"/><polygon class="cls-22" points="364.64 135.97 366.94 135.95 364.7 136.47 364.64 135.97 364.64 135.97"/><polygon class="cls-22" points="364.01 138.27 366.31 138.25 364.07 138.77 364.01 138.27 364.01 138.27"/><polygon class="cls-22" points="363.57 140.33 366.8 141.02 363.51 140.82 363.57 140.33 363.57 140.33"/><polygon class="cls-22" points="363.02 142.88 365.34 142.93 363.07 143.38 363.02 142.88 363.02 142.88"/><polygon class="cls-22" points="362.79 144.52 365.17 145.39 362.66 145 362.79 144.52 362.79 144.52"/><polygon class="cls-22" points="361.73 147.54 365.01 146.96 361.85 148.02 361.73 147.54 361.73 147.54"/><polygon class="cls-22" points="361.4 150.1 364.7 150.57 361.37 150.59 361.4 150.1 361.4 150.1"/><polygon class="cls-22" points="322.87 93.85 318.59 92.55 322.99 93.36 322.87 93.85 322.87 93.85"/><polygon class="cls-22" points="323.77 91.27 319.81 89.22 323.98 90.82 323.77 91.27 323.77 91.27"/><polygon class="cls-22" points="324.65 87.69 321.47 86.98 324.72 87.19 324.65 87.69 324.65 87.69"/><polygon class="cls-22" points="325.31 85.5 322.35 84.14 325.49 85.03 325.31 85.5 325.31 85.5"/><polygon class="cls-22" points="332.57 72.95 331.21 70.51 332.98 72.67 332.57 72.95 332.57 72.95"/><polygon class="cls-22" points="335.2 70.68 333.5 68.47 335.57 70.34 335.2 70.68 335.2 70.68"/><polygon class="cls-22" points="338.2 68.46 336.22 66.49 338.52 68.08 338.2 68.46 338.2 68.46"/><polygon class="cls-22" points="346.51 65.4 347.23 62.7 347 65.49 346.51 65.4 346.51 65.4"/><polygon class="cls-22" points="348.19 65.71 348.8 63.75 348.68 65.8 348.19 65.71 348.19 65.71"/><polygon class="cls-22" points="359.04 70.8 362.09 69.15 359.31 71.22 359.04 70.8 359.04 70.8"/><polygon class="cls-22" points="360.46 72.45 362.55 71.42 360.73 72.87 360.46 72.45 360.46 72.45"/><polygon class="cls-22" points="361.6 73.83 364.59 73.03 361.77 74.31 361.6 73.83 361.6 73.83"/><polygon class="cls-22" points="362.65 76.01 365.19 75.2 362.84 76.47 362.65 76.01 362.65 76.01"/><polygon class="cls-22" points="363.81 78.21 366.94 77.51 363.96 78.69 363.81 78.21 363.81 78.21"/><polygon class="cls-22" points="364.64 79.88 367.28 79.43 364.77 80.36 364.64 79.88 364.64 79.88"/><polygon class="cls-22" points="365.44 81.8 368.61 80.91 365.61 82.27 365.44 81.8 365.44 81.8"/><polygon class="cls-22" points="367.77 93.46 370.32 94.2 367.68 93.95 367.77 93.46 367.77 93.46"/><polygon class="cls-22" points="368.09 96.3 371.19 95.81 368.21 96.79 368.09 96.3 368.09 96.3"/><polygon class="cls-22" points="368.28 97.84 370.32 98.38 368.21 98.34 368.28 97.84 368.28 97.84"/><polygon class="cls-22" points="368.19 100.77 370.32 100.14 368.39 101.23 368.19 100.77 368.19 100.77"/><polygon class="cls-22" points="368.18 102.72 370.4 102.68 368.24 103.21 368.18 102.72 368.18 102.72"/><polygon class="cls-22" points="368.47 104.22 371.37 104.13 368.53 104.71 368.47 104.22 368.47 104.22"/><polygon class="cls-22" points="368.39 105.6 370.7 106.23 368.31 106.1 368.39 105.6 368.39 105.6"/><path class="cls-23" d="M548.42,135.71s14.8-37,37.09-46.6c0,0-7.78,6.38-13.89,23.3S554,144.7,554,144.7l-6.5,2.66Z" transform="translate(-62.73 -24.48)"/><path class="cls-23" d="M544.74,141.16c0-.67-24.07-17.94-12.1-59.14,0,0,3.3,36.3,17.25,43.68Z" transform="translate(-62.73 -24.48)"/><path class="cls-23" d="M541.94,154.42s-3.47-42.57,20.16-68.34c0,0-20.38,56.68-3.24,77.85,0,0-16.6-.11-17-1S541.94,154.42,541.94,154.42Z" transform="translate(-62.73 -24.48)"/><path class="cls-23" d="M563.48,155.22s16.43-11.75,28.08-15.26c0,0-6.94,12.32-17.26,15.36-7.11,2.1-3.68,5-3.68,5h-7.14Z" transform="translate(-62.73 -24.48)"/><path class="cls-23" d="M556.05,137.72s14.23-16.28,22.22-20.91c0,0,3.46-1.51,13.29-9.67,0,0-17,33.39-26.43,37.56S556.05,137.72,556.05,137.72Z" transform="translate(-62.73 -24.48)"/><path class="cls-23" d="M562.1,137.27s9.3-13.1,36.63-9.4c0,0-20.05,3.13-28.67,19.49l-18.82,6.49Z" transform="translate(-62.73 -24.48)"/><path class="cls-23" d="M555.16,152.73s3.81-15.3,31.36-15c0,0-16,8.87-19.84,18.17l.24,5-14.22-.48Z" transform="translate(-62.73 -24.48)"/><path class="cls-23" d="M535.56,155.2s-6.28-8.81-24.31-9.56a165.3,165.3,0,0,0,16.24,11.8l10.31,1.71Z" transform="translate(-62.73 -24.48)"/><path class="cls-23" d="M547.54,151.84S539.25,125,513.6,109.72c0,0,2.57,2.52,24.2,45.59Z" transform="translate(-62.73 -24.48)"/><path class="cls-23" d="M544.18,156.77S537.12,138.4,508,132c0,0,24.31,21.84,27.22,28.9S544.18,156.77,544.18,156.77Z" transform="translate(-62.73 -24.48)"/><path class="cls-23" d="M543.47,154.42s5.83-25.73,33.61-24.09c0,0-25.06,11-23.27,28.82l-11.53-1Z" transform="translate(-62.73 -24.48)"/><path class="cls-24" d="M545.79,210s4.41-3.55,7.91.06l-3.15,11.76a.93.93,0,0,1-1.79,0C547.68,218.54,546.06,213.1,545.79,210Z" transform="translate(-62.73 -24.48)"/><g class="cls-25"><path class="cls-26" d="M545.79,217.25s4.33,2.57,7.91,0,2.35-6,2.35-6l-10.26-4.18Z" transform="translate(-62.73 -24.48)"/><path class="cls-26" d="M486.12,204.86" transform="translate(-62.73 -24.48)"/></g><path class="cls-27" d="M545.79,210s4.41-3.55,7.91.06l-3.15,11.76a.93.93,0,0,1-1.79,0C547.68,218.54,546.06,213.1,545.79,210Z" transform="translate(-62.73 -24.48)"/><path class="cls-28" d="M516.67,155.52c9.25.43,47.88,2,63.89-1.07a1.68,1.68,0,0,1,2,1.46c1.16,10.19,4.94,59.38-30.41,59.12,0,0-45.06,7.3-37.73-57.57A2.19,2.19,0,0,1,516.67,155.52Z" transform="translate(-62.73 -24.48)"/><g class="cls-29"><path class="cls-30" d="M539.6,156.68s-18.66-.6-22.71,18.9c0,0-1.33,20.67,14.8,34.17,18.26,15.28-3.6-1.27-3.6-1.27H508s-8.74-37.08-8.89-37.83,0-28.59,0-28.59l18.82-2.77,22.26,16.94" transform="translate(-62.73 -24.48)"/><path class="cls-31" d="M513.51,169.8s32,6.93,71.77.94l-.59,3.59s-31.14,6.37-70.92-.54Z" transform="translate(-62.73 -24.48)"/><g class="cls-32"><path class="cls-33" d="M518.63,170s-1.86,4.66-1.77,7-8.11,1.87-8.11,1.87l-3.59-5.67L507,166.1l4.22,1.49Z" transform="translate(-62.73 -24.48)"/></g><path class="cls-34" d="M513.51,169.8s32,6.93,71.77.94l-.59,3.59s-31.14,6.37-70.92-.54Z" transform="translate(-62.73 -24.48)"/><path class="cls-31" d="M513.77,163.29s32.63,8.5,71.33.23v4s-31.64,6.81-71.42-.11Z" transform="translate(-62.73 -24.48)"/><g class="cls-35"><path class="cls-33" d="M522,164.57a41.64,41.64,0,0,0-2.9,4.43c-.6,1.32-8.35-.44-8.35-.44l-.29-8.21,7.76.56,4.33,2.33Z" transform="translate(-62.73 -24.48)"/></g><path class="cls-34" d="M513.77,163.29s32.63,8.5,71.33.23v4s-31.64,6.81-71.42-.11Z" transform="translate(-62.73 -24.48)"/><path class="cls-30" d="M541.86,217.81l-16.31-7.5s3-7.1,13.14-1.35C538.69,209,547.2,214.63,541.86,217.81Z" transform="translate(-62.73 -24.48)"/><path class="cls-30" d="M571.49,207.8s-6.42-2.79-13,6.32c-5.9,8.21-.67.48-.67.48l2.27,2.35s12.39-4.72,12.92-5.16-1.55-4-1.55-4" transform="translate(-62.73 -24.48)"/><path class="cls-30" d="M542.49,212.46s3,2.58,16.42,1.13l0,4.48-18.74.62,1.34-6.52Z" transform="translate(-62.73 -24.48)"/></g><path class="cls-36" d="M516.67,155.52c9.25.43,47.88,2,63.89-1.07a1.68,1.68,0,0,1,2,1.46c1.16,10.19,4.94,59.38-30.41,59.12,0,0-45.06,7.3-37.73-57.57A2.19,2.19,0,0,1,516.67,155.52Z" transform="translate(-62.73 -24.48)"/><path class="cls-37" d="M215.28,181.29c-.49-.47,38.31,6.49,53.09,0,0,0-4.25,20.38-3.36,33.6,0,0-.89,8.29-21.95,9.41,0,0-24.2-1.79-24.42-10.59C218.64,213.71,219.09,184.87,215.28,181.29Z" transform="translate(-62.73 -24.48)"/><g class="cls-38"><path class="cls-39" d="M226.3,187.35s-4.92,28.86,8.24,35.83c5.41,2.87-19,1.21-19,1.21s-.38-36.78-.14-37.69c3.64-13.82,4.92-9.36,4.92-9.36Z" transform="translate(-62.73 -24.48)"/><path class="cls-39" d="M239.51,184.38s-15-3.33-14.31,11.5l-12.5-16s10.79-4.07,11.48-3.52S239.51,184.38,239.51,184.38Z" transform="translate(-62.73 -24.48)"/></g><path class="cls-40" d="M215.28,181.29c-.49-.47,38.31,6.49,53.09,0,0,0-4.25,20.38-3.36,33.6,0,0-.89,8.29-21.95,9.41,0,0-24.2-1.79-24.42-10.59C218.64,213.71,219.09,184.87,215.28,181.29Z" transform="translate(-62.73 -24.48)"/><path class="cls-41" d="M85.36,111.21s33-14.37,66-.12c0,0-10.43,105.16-12.22,106,0,0-7.18,8.26-22.63,6.69,0,0-17.92-.86-24.42-8.25Z" transform="translate(-62.73 -24.48)"/><g class="cls-42"><path class="cls-43" d="M134.46,106.69s-46.91-4.44-43.73,26C94,163.59,84.49,228,124.93,224s-1.38,0-1.38,0l-10.74,6.78L68.55,227l-5.82-51.39,3.8-64-.44-22.17,62.46-6Z" transform="translate(-62.73 -24.48)"/><ellipse class="cls-22" cx="34.97" cy="93.8" rx="2.04" ry="3.43"/><ellipse class="cls-22" cx="52.25" cy="113.81" rx="2.18" ry="2.91"/><ellipse class="cls-22" cx="65.7" cy="139.9" rx="1.51" ry="2.46"/><ellipse class="cls-22" cx="57.6" cy="162.33" rx="1.32" ry="1.73"/><ellipse class="cls-22" cx="68.5" cy="179.45" rx="1.4" ry="2.46"/><ellipse class="cls-22" cx="39.57" cy="134.36" rx="2.21" ry="3.19"/><ellipse class="cls-22" cx="70.38" cy="92.52" rx="2.05" ry="2.58"/><ellipse class="cls-22" cx="43.29" cy="185.27" rx="1.85" ry="2.46"/><ellipse class="cls-22" cx="34.44" cy="163.47" rx="1.51" ry="3.09"/><ellipse class="cls-22" cx="75.89" cy="120.97" rx="1.18" ry="2.24"/><path class="cls-43" d="M121.15,106.69s32.31-1.59,27.83,22l11.9-15.35-4-10.91-30.78-1.66Z" transform="translate(-62.73 -24.48)"/><path class="cls-43" d="M141.37,196.09s-.68,20.16-13.68,26.77l18.57-2.69,1.26-16.58Z" transform="translate(-62.73 -24.48)"/></g><path class="cls-44" d="M85.36,111.21s33-14.37,66-.12c0,0-10.43,105.16-12.22,106,0,0-7.18,8.26-22.63,6.69,0,0-17.92-.86-24.42-8.25Z" transform="translate(-62.73 -24.48)"/><path class="cls-24" d="M560.29,213.92c1.49-2,5.71-6.84,11.17-5a1,1,0,0,1,.58.54l5.7,13.54a.94.94,0,0,1-1.32,1.18l-15.82-8.86A.93.93,0,0,1,560.29,213.92Z" transform="translate(-62.73 -24.48)"/><g class="cls-45"><path class="cls-26" d="M561.39,208.48s-.76,5,16.43,16.24l-13.29.3-11.83-.76,1-11.34Z" transform="translate(-62.73 -24.48)"/></g><path class="cls-27" d="M560.29,213.92c1.49-2,5.71-6.84,11.17-5a1,1,0,0,1,.58.54l5.7,13.54a.94.94,0,0,1-1.32,1.18l-15.82-8.86A.93.93,0,0,1,560.29,213.92Z" transform="translate(-62.73 -24.48)"/><path class="cls-24" d="M540.74,213.36c-1.42-2-5.71-7-11.3-5.14a.83.83,0,0,0-.5.47l-5.86,13.91a.82.82,0,0,0,1.15,1l16.24-9.09A.81.81,0,0,0,540.74,213.36Z" transform="translate(-62.73 -24.48)"/><g class="cls-46"><path class="cls-26" d="M538.84,208.48s-1,5.93-18.07,16.69l21-7,2.46-6Z" transform="translate(-62.73 -24.48)"/></g><path class="cls-27" d="M540.74,213.36c-1.42-2-5.71-7-11.3-5.14a.83.83,0,0,0-.5.47l-5.86,13.91a.82.82,0,0,0,1.15,1l16.24-9.09A.81.81,0,0,0,540.74,213.36Z" transform="translate(-62.73 -24.48)"/><path class="cls-47" d="M690.89,135.33s5,80.8,5.88,82.45c0,0,1.39,3,2.11-1.43s.82-81.24.82-81.24Z" transform="translate(-62.73 -24.48)"/><g class="cls-48"><path class="cls-49" d="M690.5,151.21s8.1,2.67,11.41-1.23,3.49-14.49,3.49-14.49-6.19-9.32-6.79-9.32-11.16.72-11.16.72l-1.63,17.29Z" transform="translate(-62.73 -24.48)"/></g><path class="cls-50" d="M690.89,135.33s5,80.8,5.88,82.45c0,0,1.39,3,2.11-1.43s.82-81.24.82-81.24Z" transform="translate(-62.73 -24.48)"/><path class="cls-24" d="M654.87,65.84c12.54-2.36,54-9.1,80-.58a3.92,3.92,0,0,1,2.72,4.12c-1.27,13.13-6.87,64.24-16.84,65.43,0,0-35,3.86-51.53-.66,0,0-10.63,1.27-17.77-63.8A4.16,4.16,0,0,1,654.87,65.84Z" transform="translate(-62.73 -24.48)"/><g class="cls-51"><path class="cls-52" d="M706.26,62.74s-45.07,2-45.52,9.24c-1.84,29.22,10.84,66.31,21.41,68.53l-37.45,1.58L628.46,85.22l9.1-32.78s70.21-4.57,71.33-4.55,7.28,6.18,7.28,6.18Z" transform="translate(-62.73 -24.48)"/><path class="cls-28" d="M648.91,75.73s55.51-9.88,91.63,0l.41-4s-36.28-10-92.63.22Z" transform="translate(-62.73 -24.48)"/><path class="cls-52" d="M657.42,69.16s22-13.95,84.44-1.71l6.74-9.67L707.16,44.05s-46.62,1-47.29,1-13.21-.68-13.22,0S657.42,69.16,657.42,69.16Z" transform="translate(-62.73 -24.48)"/><path class="cls-52" d="M668.28,120.67s-1.33,17.44,58.57,13.58l-2,9.26L650,150.69s-23.34-4.11-21-7.43,2.73-27,3.39-26.59S668.28,120.67,668.28,120.67Z" transform="translate(-62.73 -24.48)"/><path class="cls-53" d="M662.93,69.65s-2.69.76-2.09,4.34l-7.94,1.09-.47-3.82Z" transform="translate(-62.73 -24.48)"/></g><path class="cls-54" d="M654.87,65.84c12.54-2.36,54-9.1,80-.58a3.92,3.92,0,0,1,2.72,4.12c-1.27,13.13-6.87,64.24-16.84,65.43,0,0-35,3.86-51.53-.66,0,0-10.63,1.27-17.77-63.8A4.16,4.16,0,0,1,654.87,65.84Z" transform="translate(-62.73 -24.48)"/><path class="cls-37" d="M272.53,165.33a1.55,1.55,0,0,1,1.9,1.94c-.62,3.33-1.92,9.17-3.93,13-2.46,4.7-45.17,4.42-56.84.7a3.69,3.69,0,0,1-2.32-2.24,103.24,103.24,0,0,1-3.46-10.84c-.19-.88.68-2.54,1.57-2.41C217.47,166.7,251.66,168.91,272.53,165.33Z" transform="translate(-62.73 -24.48)"/><g class="cls-55"><path class="cls-39" d="M234.09,167.21s-9.25,1.71-7.39,15.08l-14.81,2.48L199,175.66l-.56-15.21s24.42-3.57,25.2-2.9,5,8.63,5,8.63" transform="translate(-62.73 -24.48)"/></g><path class="cls-40" d="M272.53,165.33a1.55,1.55,0,0,1,1.9,1.94c-.62,3.33-1.92,9.17-3.93,13-2.46,4.7-45.17,4.42-56.84.7a3.69,3.69,0,0,1-2.32-2.24,103.24,103.24,0,0,1-3.46-10.84c-.19-.88.68-2.54,1.57-2.41C217.47,166.7,251.66,168.91,272.53,165.33Z" transform="translate(-62.73 -24.48)"/><path class="cls-31" d="M427.51,223.9s-59.29,2.24-86.25-.32V220.2l86.25.49Z" transform="translate(-62.73 -24.48)"/><g class="cls-56"><path class="cls-57" d="M427.51,220.69s-84.84,1.44-68,2.79c16.6,1.32.06,1.15.06,1.15l-.43,5.44-24.61-1.49S321,225.29,321.7,223.8s1.65-12.7,1.65-12.7l31.43-2.18,4.81,11.62" transform="translate(-62.73 -24.48)"/></g><path class="cls-34" d="M427.51,223.9s-59.29,2.24-86.25-.32V220.2l86.25.49Z" transform="translate(-62.73 -24.48)"/><path class="cls-31" d="M341.26,220.2c0,.55,73.83.75,84.86.16a3.58,3.58,0,0,0,2.27-1c5.38-5,33.11-32,16-41.74a4.82,4.82,0,0,0-3.07-.59c-8.12,1.12-49.73,6.05-112.28-.73a4.67,4.67,0,0,0-3.07.71C321.73,179.84,312.27,189.92,341.26,220.2Z" transform="translate(-62.73 -24.48)"/><g class="cls-58"><path class="cls-57" d="M334,178.4s-20.38-1.1,14.52,39l-22,2.8h-2.75l-10.48-46.66s4-13.34,5.08-12.82,15.34,16,15.34,16" transform="translate(-62.73 -24.48)"/><path class="cls-57" d="M331.52,192.34s3.58,26.18,51.56,28.47l-52.73.79,2.77-14.95Z" transform="translate(-62.73 -24.48)"/><path class="cls-57" d="M431.51,218.3c-20.48,1.9-68.82-.61-97.95,1l96.13,3.2Z" transform="translate(-62.73 -24.48)"/><path class="cls-57" d="M442.52,177.64s-46.49,8.4-115.15,0l-6.95-2.58-4.93-5.18L330.17,163Z" transform="translate(-62.73 -24.48)"/></g><path class="cls-59" d="M341.26,220.2c0,.55,73.83.75,84.86.16a3.58,3.58,0,0,0,2.27-1c5.38-5,33.11-32,16-41.74a4.82,4.82,0,0,0-3.07-.59c-8.12,1.12-49.73,6.05-112.28-.73a4.67,4.67,0,0,0-3.07.71C321.73,179.84,312.27,189.92,341.26,220.2Z" transform="translate(-62.73 -24.48)"/><path class="cls-60" d="M348.21,220.74c-10.29-7.84-17-20.3-17.23-33.27-.12-1.61.15-3.86.19-5.49,0,1.65-.22,3.88-.06,5.49a42,42,0,0,0,9.79,25,42.61,42.61,0,0,0,7.87,7.44l-.56.83Z" transform="translate(-62.73 -24.48)"/><path class="cls-60" d="M356.22,220.58a.39.39,0,0,0,0,.21c0,.06.12.14.09.11l-.45-.32c-12.12-8.47-17.14-23.68-18.52-37.82,1.69,13.94,6.93,28.9,19.07,37,.31.23.72.35.78.81Z" transform="translate(-62.73 -24.48)"/><path class="cls-60" d="M364.12,220.85c-9.83-8.4-14.41-21.21-16.56-33.61-.26-1.79-.47-3.59-.7-5.38.27,1.79.52,3.58.82,5.36,1.68,8.82,4.69,17.54,9.83,25A35.22,35.22,0,0,0,364.7,220l-.58.82Z" transform="translate(-62.73 -24.48)"/><path class="cls-60" d="M369.27,221.22c-5.75-12.35-11-25.56-11.1-39.36.16,10.31,3.68,20.22,7.62,29.63,1.35,3.14,2.78,6.26,4.36,9.27l-.88.46Z" transform="translate(-62.73 -24.48)"/><path class="cls-60" d="M376.4,221.13c-3.12-12.54-6.31-25.37-6-38.37-.13,9.73,2.12,19.31,4.37,28.73.79,3.13,1.63,6.27,2.55,9.36l-1,.28Z" transform="translate(-62.73 -24.48)"/><path class="cls-60" d="M383.32,221q.65-19.09.5-38.22.66,19.11.5,38.24l-1,0Z" transform="translate(-62.73 -24.48)"/><path class="cls-60" d="M420.17,220c12.08-8.53,19.6-23.32,18.3-38.17a42.43,42.43,0,0,1-9.64,31.21,45.65,45.65,0,0,1-8.1,7.79l-.56-.83Z" transform="translate(-62.73 -24.48)"/><path class="cls-60" d="M412.14,220.44c0-.43.47-.59.77-.81,12.1-8.07,17.23-23,18.91-36.87A75.6,75.6,0,0,1,430,193.53c-2.51,10.46-7.72,20.95-16.86,27.11l-.11.08-.05,0s.06,0,.08-.11a.32.32,0,0,0,0-.21Z" transform="translate(-62.73 -24.48)"/><path class="cls-60" d="M405.12,220c9.55-8.15,14.07-20.76,16.41-32.78l.81-5.31-.68,5.33c-1.75,10.59-5.26,21.23-12.12,29.65a27.25,27.25,0,0,1-3.83,3.92l-.59-.81Z" transform="translate(-62.73 -24.48)"/><path class="cls-60" d="M399.05,220.76c6-12.14,11.6-25.17,12-38.9.09,10.34-3.21,20.38-6.92,29.92-1.29,3.19-2.65,6.34-4.18,9.44l-.88-.46Z" transform="translate(-62.73 -24.48)"/><path class="cls-60" d="M391.84,220.85c3.42-12.41,6.94-25.13,6.92-38.09.38,9.74-1.63,19.41-3.65,28.9-.71,3.17-1.46,6.32-2.31,9.47l-1-.28Z" transform="translate(-62.73 -24.48)"/><path class="cls-47" d="M671.72,134.85a1.07,1.07,0,0,0-1.31,1c-.94,10.25-7.57,82.42-7.65,86.86,0,0,.75,3.75,3.15-3.08,2.26-6.43,11-74.72,12-82.63a.8.8,0,0,0-.65-.9Z" transform="translate(-62.73 -24.48)"/><g class="cls-61"><path class="cls-49" d="M677,144.32s-7.38,7.73-10.6,35.57h0l-8.47-.81,2.26-32.35,5.38-19.11,17.15,5.51-1.51,7.09-3.55-1" transform="translate(-62.73 -24.48)"/></g><path class="cls-50" d="M671.72,134.85a1.07,1.07,0,0,0-1.31,1c-.94,10.25-7.57,82.42-7.65,86.86,0,0,.75,3.75,3.15-3.08,2.26-6.43,11-74.72,12-82.63a.8.8,0,0,0-.65-.9Z" transform="translate(-62.73 -24.48)"/><path class="cls-47" d="M718.11,135.06a1.24,1.24,0,0,1,1.38,1c1.68,10,13.66,81,14.07,85.39,0,0-.49,3.76-3.43-2.81-2.7-6.07-16.4-71.3-18.52-81.43a1.24,1.24,0,0,1,1.06-1.49Z" transform="translate(-62.73 -24.48)"/><g class="cls-62"><path class="cls-49" d="M719.13,149.87s-1.93,10.35.78,27.67l-10.68-2.14-1.71-36.32.15-8.42,11.87.27,7.63,12.18-6.31,1.1" transform="translate(-62.73 -24.48)"/></g><path class="cls-50" d="M718.11,135.06a1.24,1.24,0,0,1,1.38,1c1.68,10,13.66,81,14.07,85.39,0,0-.49,3.76-3.43-2.81-2.7-6.07-16.4-71.3-18.52-81.43a1.24,1.24,0,0,1,1.06-1.49Z" transform="translate(-62.73 -24.48)"/><path class="cls-22" d="M695.26,61.05c-5.37-6.45-14.85-13.9-23.17-8.18a68.81,68.81,0,0,0-9.89,9.5c-15.17,17.57-22.57,40.16-29.07,62.07,2.54-8.87,5.17-17.72,8.46-26.35C648.07,80.88,657.1,64,671.68,52.25c3.89-2.89,9.33-2.79,13.54-.63A34.87,34.87,0,0,1,696,60.41l-.77.64Z" transform="translate(-62.73 -24.48)"/><path class="cls-22" d="M694.16,60.78c2.19-12,15.61-16.37,26.14-18.17,3.68-.63,7.4-1,11.11-1.27a110.94,110.94,0,0,0-11.06,1.52c-10.19,2-23.3,6.39-25.2,18.08l-1-.16Z" transform="translate(-62.73 -24.48)"/><path class="cls-22" d="M694,61c-2.55-17.67-13.89-34.33-33.19-23.76-9,4.67-16.27,11.92-23.11,19.27a120.14,120.14,0,0,1,14.5-14C663.54,33.4,677.69,28,687.75,42c4,5.56,6.13,12.19,7.25,18.87L694,61Z" transform="translate(-62.73 -24.48)"/><path class="cls-22" d="M693.42,60.11c5.32-4.82,13-5.56,18.75-1.09,5.33,4.1,8.63,10.24,11.24,16.3,7.36,18,10,37.39,12.37,56.52-2.6-19.56-5.55-39.48-13.52-57.68-2.6-5.42-5.68-10.86-10.56-14.5-5.51-4.16-12.58-3.39-17.59,1.16l-.69-.71Z" transform="translate(-62.73 -24.48)"/><path class="cls-22" d="M696.24,60.82c-5.24-8.31-13.09.06-16.82,5.35a64.19,64.19,0,0,0-4,6.29A64.88,64.88,0,0,1,679.22,66c3.19-4.51,8.83-12.21,15.09-8.52a10.42,10.42,0,0,1,2.75,2.75l-.82.56Z" transform="translate(-62.73 -24.48)"/><path class="cls-63" d="M633.78,120.71c-3.59,2.12-15.23,9.73-8,15.87a.67.67,0,0,0,.28.14c1.12.27,8,1.21,8.73-15.41A.65.65,0,0,0,633.78,120.71Z" transform="translate(-62.73 -24.48)"/><path class="cls-63" d="M634.78,120.15c.86,4.23,3.72,14.91,10.37,10.51,0,0,5.14-4.8-9.14-11.45A.86.86,0,0,0,634.78,120.15Z" transform="translate(-62.73 -24.48)"/><path class="cls-63" d="M634.46,119.88a.49.49,0,0,0-.21-.86c-3.78-.81-17.51-3.27-15.8,3.84C618.45,122.86,623,129.6,634.46,119.88Z" transform="translate(-62.73 -24.48)"/><path class="cls-63" d="M635.81,115.64a.49.49,0,0,0,0-.88c-3.55-1.52-16.54-6.61-16.25.7C619.53,115.46,622.66,123,635.81,115.64Z" transform="translate(-62.73 -24.48)"/><path class="cls-63" d="M638.15,109a.49.49,0,0,0,0-.88c-3.57-1.5-16.59-6.5-16.25.81C621.86,109,625,116.43,638.15,109Z" transform="translate(-62.73 -24.48)"/><path class="cls-63" d="M639.65,104.8a.49.49,0,0,0,.2-.86c-3-2.42-14.17-10.78-15.84-3.66C624,100.28,625,108.33,639.65,104.8Z" transform="translate(-62.73 -24.48)"/><path class="cls-63" d="M641.06,100a.5.5,0,0,0,.41-.79c-2.36-3.07-11.2-13.85-14.52-7.34C627,91.89,626,100,641.06,100Z" transform="translate(-62.73 -24.48)"/><path class="cls-63" d="M643.94,93.37a.5.5,0,0,0,.4-.79c-2.35-3.06-11.19-13.85-14.51-7.33C629.83,85.25,628.89,93.31,643.94,93.37Z" transform="translate(-62.73 -24.48)"/><path class="cls-63" d="M646.81,87.31a.49.49,0,0,0,.44-.76c-2.22-3.17-10.6-14.32-14.2-8C633.05,78.6,631.78,86.62,646.81,87.31Z" transform="translate(-62.73 -24.48)"/><path class="cls-63" d="M649.43,81.11a.44.44,0,0,0,.39-.69c-2-2.85-9.55-12.9-12.79-7.16C637,73.26,635.88,80.49,649.43,81.11Z" transform="translate(-62.73 -24.48)"/><path class="cls-63" d="M652.69,75.51a.45.45,0,0,0,.43-.67c-1.83-3-8.77-13.45-12.34-7.91C640.78,66.93,639.2,74.08,652.69,75.51Z" transform="translate(-62.73 -24.48)"/><path class="cls-63" d="M654.52,71.75a.45.45,0,0,0,.61-.51c-.89-3.37-4.47-15.42-9.5-11.16C645.63,60.08,642,66.46,654.52,71.75Z" transform="translate(-62.73 -24.48)"/><path class="cls-63" d="M636.38,115.19c2,3.81,7.8,13.23,12.92,7.13,0,0,3.56-6.06-12-8.39A.87.87,0,0,0,636.38,115.19Z" transform="translate(-62.73 -24.48)"/><path class="cls-63" d="M638.69,108.88c2.61,3.42,9.86,11.78,13.92,4.92,0,0,2.53-6.56-13.22-6.31A.87.87,0,0,0,638.69,108.88Z" transform="translate(-62.73 -24.48)"/><path class="cls-63" d="M641.19,102.37c2.61,3.43,9.86,11.78,13.92,4.93,0,0,2.52-6.56-13.23-6.31A.86.86,0,0,0,641.19,102.37Z" transform="translate(-62.73 -24.48)"/><path class="cls-63" d="M644.3,94.32c3,3.84,11.19,13.24,15.41,5.85,0,0,2.56-7.11-14.69-7.35A.91.91,0,0,0,644.3,94.32Z" transform="translate(-62.73 -24.48)"/><path class="cls-63" d="M647.93,87.82c3.06,3.12,11.4,10.66,14.41,3.61,0,0,1.54-6.63-13.93-5A.82.82,0,0,0,647.93,87.82Z" transform="translate(-62.73 -24.48)"/><path class="cls-63" d="M651.49,80c2.74,3.42,10.28,11.75,14,5,0,0,2.2-6.45-13.34-6.4A.82.82,0,0,0,651.49,80Z" transform="translate(-62.73 -24.48)"/><path class="cls-63" d="M654.57,74.08c2.84,2.7,10.55,9.19,13,2.77,0,0,1.16-6-12.64-4A.73.73,0,0,0,654.57,74.08Z" transform="translate(-62.73 -24.48)"/><path class="cls-63" d="M659.08,66.15c1.79,2.93,6.88,10.12,10.88,4.78,0,0,2.71-5.19-10.18-5.87A.74.74,0,0,0,659.08,66.15Z" transform="translate(-62.73 -24.48)"/><path class="cls-63" d="M663.53,59.9c1.29,2.85,5.08,9.91,9.59,5.3,0,0,3.27-4.58-8.77-6.25A.74.74,0,0,0,663.53,59.9Z" transform="translate(-62.73 -24.48)"/><path class="cls-63" d="M669,55.47c.87,2.5,3.53,8.77,7.43,5.39,0,0,2.91-3.48-6.72-6.1A.57.57,0,0,0,669,55.47Z" transform="translate(-62.73 -24.48)"/><path class="cls-63" d="M674.93,51.87c.17,2.13,1,7.54,4.68,5.7,0,0,3-2.12-4-6.1A.45.45,0,0,0,674.93,51.87Z" transform="translate(-62.73 -24.48)"/><path class="cls-63" d="M680.93,50.84c-.48,1.86-1.41,6.69,2.25,6.23,0,0,3.11-.92-1.55-6.37A.41.41,0,0,0,680.93,50.84Z" transform="translate(-62.73 -24.48)"/><path class="cls-63" d="M675.91,71.06c-2.74,1.61-11.61,7.42-6.13,12.1a.53.53,0,0,0,.21.11c.86.2,6.13.92,6.66-11.75A.5.5,0,0,0,675.91,71.06Z" transform="translate(-62.73 -24.48)"/><path class="cls-63" d="M676.56,70.56c.07,2.54.7,11,6.24,9.28a.42.42,0,0,0,.17-.1c.48-.49,3.1-3.77-5.79-9.49A.39.39,0,0,0,676.56,70.56Z" transform="translate(-62.73 -24.48)"/><path class="cls-63" d="M678.37,67.91c.91,2.38,4.33,10.17,9,6.68a.35.35,0,0,0,.13-.14c.29-.63,1.67-4.59-8.61-7A.39.39,0,0,0,678.37,67.91Z" transform="translate(-62.73 -24.48)"/><path class="cls-63" d="M680.92,64.33c1,2.21,4.79,9.44,9.09,5.89a.44.44,0,0,0,.12-.15c.24-.61,1.35-4.44-8.77-6.24A.38.38,0,0,0,680.92,64.33Z" transform="translate(-62.73 -24.48)"/><path class="cls-63" d="M683.89,61c1,1.5,4.6,6.35,7.26,3.2a.23.23,0,0,0,.06-.12c.1-.48.43-3.43-7.06-3.5A.28.28,0,0,0,683.89,61Z" transform="translate(-62.73 -24.48)"/><path class="cls-63" d="M686.76,58.39c1,1.26,4.67,5.31,6.79,2.26a.22.22,0,0,0,.05-.11c0-.44.09-3.13-6.65-2.55A.25.25,0,0,0,686.76,58.39Z" transform="translate(-62.73 -24.48)"/><path class="cls-63" d="M676.48,69.65c-2.23-1.13-9.85-4.56-10.66,1.06a.4.4,0,0,0,0,.19c.23.65,2,4.46,10.66-.56A.39.39,0,0,0,676.48,69.65Z" transform="translate(-62.73 -24.48)"/><path class="cls-63" d="M678.08,67.21c-1.49-1.59-6.71-6.66-9.23-2.39a.3.3,0,0,0-.05.16c0,.59.17,4.18,9.06,2.78A.34.34,0,0,0,678.08,67.21Z" transform="translate(-62.73 -24.48)"/><path class="cls-63" d="M680.9,63.31c-1.65-1.72-7.47-7.18-10.12-2.44a.41.41,0,0,0,0,.18c0,.65.28,4.59,9.95,2.87A.37.37,0,0,0,680.9,63.31Z" transform="translate(-62.73 -24.48)"/><path class="cls-63" d="M684.49,60.11c-1.51-1.52-6.8-6.36-9.25-2.12a.3.3,0,0,0,0,.16c0,.58.24,4.09,9.09,2.51A.33.33,0,0,0,684.49,60.11Z" transform="translate(-62.73 -24.48)"/><path class="cls-63" d="M686.42,57.81c-.7-1.34-3.28-5.71-5.81-3.35a.23.23,0,0,0-.07.1c-.13.39-.68,2.81,5.63,3.57A.23.23,0,0,0,686.42,57.81Z" transform="translate(-62.73 -24.48)"/><path class="cls-63" d="M637.79,55.49c-3.08-.3-13.4-.82-11.79,6a.41.41,0,0,0,.1.21c.55.65,4.28,4.24,12-5.45A.48.48,0,0,0,637.79,55.49Z" transform="translate(-62.73 -24.48)"/><path class="cls-63" d="M638.5,55.65c-1.32,2.25-5.34,9.89.44,10.56a.65.65,0,0,0,.2,0c.69-.24,4.75-2.07.06-10.56A.41.41,0,0,0,638.5,55.65Z" transform="translate(-62.73 -24.48)"/><path class="cls-63" d="M641.72,51c-2.5-1.5-11-6.1-11.46.35a.78.78,0,0,0,0,.22c.29.78,2.44,5.33,11.48.22A.47.47,0,0,0,641.72,51Z" transform="translate(-62.73 -24.48)"/><path class="cls-63" d="M641.73,51.75c-.74,2.4-2.83,10.44,2.67,9.51a.67.67,0,0,0,.18-.07c.59-.41,3.95-3.15-2.2-9.65A.41.41,0,0,0,641.73,51.75Z" transform="translate(-62.73 -24.48)"/><path class="cls-63" d="M646.44,47c-2.1-1.91-9.31-7.9-10.68-1.79a.54.54,0,0,0,0,.22c.16.8,1.5,5.57,10.61,2.34A.47.47,0,0,0,646.44,47Z" transform="translate(-62.73 -24.48)"/><path class="cls-63" d="M646.13,47.8c-.23,2.37-.66,10.26,4.18,8.15a.42.42,0,0,0,.15-.11c.46-.5,3-3.8-3.77-8.39C646.48,47.31,646.16,47.51,646.13,47.8Z" transform="translate(-62.73 -24.48)"/><path class="cls-63" d="M651.61,42.54c-2.18-2-9.65-8.19-11.07-1.85a.55.55,0,0,0,0,.22c.17.83,1.56,5.79,11,2.43A.49.49,0,0,0,651.61,42.54Z" transform="translate(-62.73 -24.48)"/><path class="cls-63" d="M651.31,43.44c-.39,2.47-1.34,10.67,3.83,8.73a.39.39,0,0,0,.16-.1c.52-.5,3.39-3.8-3.39-9A.42.42,0,0,0,651.31,43.44Z" transform="translate(-62.73 -24.48)"/><path class="cls-63" d="M656.36,38.91c-2-2.45-8.79-10.27-10.84-3.69a.88.88,0,0,0,0,.24c.09.91,1,6.44,10.73,4.3C656.52,39.69,656.6,39.21,656.36,38.91Z" transform="translate(-62.73 -24.48)"/><path class="cls-63" d="M656.71,39.34c1.88,1.7,7.86,7.58,2.56,9.41a.69.69,0,0,1-.2,0c-.72-.07-5.09-.81-3-9.31A.41.41,0,0,1,656.71,39.34Z" transform="translate(-62.73 -24.48)"/><path class="cls-63" d="M661.68,36.87c1.89,1.69,7.87,7.58,2.56,9.41a.4.4,0,0,1-.19,0c-.72-.06-5.09-.8-3-9.3A.41.41,0,0,1,661.68,36.87Z" transform="translate(-62.73 -24.48)"/><path class="cls-63" d="M668.11,34.54c1.52,2,6.26,9,.7,9.72a.41.41,0,0,1-.19,0c-.7-.2-4.84-1.76-1.2-9.71A.41.41,0,0,1,668.11,34.54Z" transform="translate(-62.73 -24.48)"/><path class="cls-63" d="M676.33,33.89c.73,2.43,2.83,10.55-2.66,9.39a.71.71,0,0,1-.18-.08c-.58-.43-4-3.31,2.19-9.55C675.86,33.46,676.24,33.6,676.33,33.89Z" transform="translate(-62.73 -24.48)"/><path class="cls-63" d="M682.15,36.67c.38,2.08,1.35,9-3.16,7.69a.39.39,0,0,1-.14-.08c-.45-.4-3-3,2.78-7.85C681.8,36.28,682.1,36.42,682.15,36.67Z" transform="translate(-62.73 -24.48)"/><path class="cls-63" d="M687.09,40.88c-.44,1.47-2.1,6.3-4.59,3.95a.36.36,0,0,1-.07-.1c-.16-.41-.95-3,4.4-4.18C687,40.51,687.14,40.7,687.09,40.88Z" transform="translate(-62.73 -24.48)"/><path class="cls-63" d="M661.55,36.14c-1.43-2.66-6.46-11.24-9.23-5.28a.77.77,0,0,0-.06.23c0,.88,0,6.31,9,5.83C661.57,36.91,661.72,36.46,661.55,36.14Z" transform="translate(-62.73 -24.48)"/><path class="cls-63" d="M668,33.51c-1.41-2.46-6.38-10.37-9.18-4.83a.65.65,0,0,0-.06.21c-.06.82-.06,5.85,9,5.35C668,34.23,668.14,33.81,668,33.51Z" transform="translate(-62.73 -24.48)"/><path class="cls-63" d="M675.17,32.84c-1.28-2.33-5.82-9.81-8.55-4.68a.33.33,0,0,0-.06.19c-.08.77-.18,5.48,8.36,5.17C675.18,33.51,675.33,33.12,675.17,32.84Z" transform="translate(-62.73 -24.48)"/><path class="cls-63" d="M679.14,33.77c.63-2.3,2.41-10-2.78-8.94a.36.36,0,0,0-.17.07c-.55.4-3.67,3.11,2.33,9.09A.39.39,0,0,0,679.14,33.77Z" transform="translate(-62.73 -24.48)"/><path class="cls-63" d="M683.08,36.46c1-1.6,4.12-7-.05-7l-.14,0c-.5.22-3.48,1.79-.32,7C682.66,36.7,683,36.66,683.08,36.46Z" transform="translate(-62.73 -24.48)"/><path class="cls-63" d="M686.73,39.69c1.35-1.18,5.65-5.25,1.91-6.5a.23.23,0,0,0-.14,0c-.52,0-3.62.56-2.26,6.43A.31.31,0,0,0,686.73,39.69Z" transform="translate(-62.73 -24.48)"/><path class="cls-63" d="M690.35,45c1.36-1.17,5.66-5.24,1.91-6.5l-.13,0c-.52.05-3.63.56-2.26,6.43A.29.29,0,0,0,690.35,45Z" transform="translate(-62.73 -24.48)"/><path class="cls-63" d="M689.64,45.22c-.51,1.45-2.4,6.19-4.78,3.72a.33.33,0,0,1-.06-.1c-.14-.41-.81-3,4.59-4A.26.26,0,0,1,689.64,45.22Z" transform="translate(-62.73 -24.48)"/><path class="cls-63" d="M729.9,42.07c2,2.33,9.22,9.76,12.72,3.68a.48.48,0,0,0,.07-.23c0-.85-.22-6-12.48-4.24A.48.48,0,0,0,729.9,42.07Z" transform="translate(-62.73 -24.48)"/><path class="cls-63" d="M728,41.82c2.58-.27,11.12-1.59,8.65-6.92a.61.61,0,0,0-.12-.16c-.56-.43-4.22-2.75-8.92,6.49A.41.41,0,0,0,728,41.82Z" transform="translate(-62.73 -24.48)"/><path class="cls-63" d="M727.86,42.1c.2,2.61,1.27,11.25,6.42,8.45a.64.64,0,0,0,.15-.13c.43-.6,2.73-4.46-6-8.75A.42.42,0,0,0,727.86,42.1Z" transform="translate(-62.73 -24.48)"/><path class="cls-63" d="M722.46,42.34c2.4-1,10.24-4.62,6.38-9.05a.44.44,0,0,0-.15-.12c-.67-.26-4.83-1.47-6.77,8.71A.41.41,0,0,0,722.46,42.34Z" transform="translate(-62.73 -24.48)"/><path class="cls-63" d="M715.63,43.75c2.35-1.09,10-5.1,6-9.34a.39.39,0,0,0-.17-.11c-.67-.23-4.89-1.25-6.35,9A.41.41,0,0,0,715.63,43.75Z" transform="translate(-62.73 -24.48)"/><path class="cls-63" d="M710.4,45.49c1.8-1.47,7.56-6.64,3.09-9.43a.44.44,0,0,0-.16-.06c-.64,0-4.52,0-3.51,9.24A.36.36,0,0,0,710.4,45.49Z" transform="translate(-62.73 -24.48)"/><path class="cls-63" d="M705.37,47.56c1.51-1.77,6.24-7.9,1.35-9.84a.33.33,0,0,0-.17,0c-.64.06-4.45.81-1.8,9.72A.37.37,0,0,0,705.37,47.56Z" transform="translate(-62.73 -24.48)"/><path class="cls-63" d="M700.66,50.41c1.4-2,5.77-8.89.4-10.17a.37.37,0,0,0-.18,0c-.67.16-4.61,1.45-.89,10.12A.39.39,0,0,0,700.66,50.41Z" transform="translate(-62.73 -24.48)"/><path class="cls-63" d="M697.33,53.76c.67-2.29,2.55-10-2.82-9.54a.34.34,0,0,0-.17.05c-.57.35-3.81,2.79,2.36,9.65A.37.37,0,0,0,697.33,53.76Z" transform="translate(-62.73 -24.48)"/><path class="cls-63" d="M721.05,43.44c.49,2.47,2.48,10.55,6.84,7.06a.44.44,0,0,0,.12-.15c.32-.64,2-4.69-6.49-7.41A.41.41,0,0,0,721.05,43.44Z" transform="translate(-62.73 -24.48)"/><path class="cls-63" d="M714.52,44.58c.7,2.21,3.37,9.46,7.21,6a.42.42,0,0,0,.11-.15c.25-.61,1.44-4.42-6.92-6.31A.37.37,0,0,0,714.52,44.58Z" transform="translate(-62.73 -24.48)"/><path class="cls-63" d="M708.25,47.14c1,1.87,4.82,7.91,7.86,4.17a.37.37,0,0,0,.07-.14c.13-.59.6-4.18-7.63-4.53A.34.34,0,0,0,708.25,47.14Z" transform="translate(-62.73 -24.48)"/><path class="cls-63" d="M702.81,49.87c1.24,1.75,5.61,7.37,8.25,3.33a.34.34,0,0,0,.06-.15c.07-.59.16-4.21-8.07-3.71A.34.34,0,0,0,702.81,49.87Z" transform="translate(-62.73 -24.48)"/><path class="cls-63" d="M698.74,53.82c1.52,1.5,6.82,6.26,8.71,1.83a.45.45,0,0,0,0-.16c0-.6-.58-4.18-8.59-2.24A.34.34,0,0,0,698.74,53.82Z" transform="translate(-62.73 -24.48)"/><path class="cls-63" d="M735.12,129.89c-1.41,3.15-5.62,13.86,2.17,14.61a.57.57,0,0,0,.26,0c.88-.36,6-3-1.49-14.64A.54.54,0,0,0,735.12,129.89Z" transform="translate(-62.73 -24.48)"/><path class="cls-63" d="M735.27,128.78c1.5,2.72,7,11.55,11.77,6.37a.43.43,0,0,0,.11-.2c.23-.82,1.11-5.93-11.41-6.87A.48.48,0,0,0,735.27,128.78Z" transform="translate(-62.73 -24.48)"/><path class="cls-63" d="M734.63,128c-2.83,1-12.11,4.69-8.1,10.2a.4.4,0,0,0,.17.15c.74.36,5.39,2.09,8.51-9.77A.47.47,0,0,0,734.63,128Z" transform="translate(-62.73 -24.48)"/><path class="cls-63" d="M734.31,123c-3,.23-12.85,1.46-10.36,7.77a.43.43,0,0,0,.13.19c.62.53,4.66,3.36,10.64-7.26A.46.46,0,0,0,734.31,123Z" transform="translate(-62.73 -24.48)"/><path class="cls-63" d="M733.16,116.59c-3.29,0-14.19.51-10.94,7.07a.5.5,0,0,0,.15.2c.73.59,5.45,3.76,11.3-6.53A.53.53,0,0,0,733.16,116.59Z" transform="translate(-62.73 -24.48)"/><path class="cls-63" d="M731.66,107.46c-3.24.55-13.91,2.85-9.62,8.79a1,1,0,0,0,.18.17c.82.45,6,2.8,10.07-8.31A.54.54,0,0,0,731.66,107.46Z" transform="translate(-62.73 -24.48)"/><path class="cls-63" d="M729.68,99.1c-3.18.87-13.56,4.23-8.69,9.71a.62.62,0,0,0,.2.15c.86.37,6.24,2.18,9.17-9.28A.53.53,0,0,0,729.68,99.1Z" transform="translate(-62.73 -24.48)"/><path class="cls-63" d="M727.38,91.85c-3.59.92-15.3,4.42-9.38,10a.6.6,0,0,0,.24.16c1,.37,7.29,2.2,10-9.57C728.28,92.08,727.82,91.74,727.38,91.85Z" transform="translate(-62.73 -24.48)"/><path class="cls-63" d="M725.18,83.05c-3.46,1.3-14.71,6.07-8.22,11a.58.58,0,0,0,.25.12c1,.27,7.5,1.39,8.86-10.59C726.11,83.18,725.61,82.89,725.18,83.05Z" transform="translate(-62.73 -24.48)"/><path class="cls-63" d="M722.38,75.53c-3.32,1.19-14.14,5.55-7.88,10.08a.64.64,0,0,0,.25.12c1,.25,7.22,1.3,8.48-9.74C723.27,75.66,722.79,75.39,722.38,75.53Z" transform="translate(-62.73 -24.48)"/><path class="cls-63" d="M718.07,67.79c-3,1.81-12.8,8.18-5.78,11.42a.76.76,0,0,0,.26.06c1,0,7.33-.12,6.44-11.19C719,67.74,718.44,67.57,718.07,67.79Z" transform="translate(-62.73 -24.48)"/><path class="cls-63" d="M712,60.64c-2.53,2.47-10.55,10.92-3,12.44a.6.6,0,0,0,.27,0c1-.2,7.1-1.82,3.66-12.39C712.88,60.38,712.33,60.34,712,60.64Z" transform="translate(-62.73 -24.48)"/><path class="cls-63" d="M705.08,57.2c-1.41,2.37-5.74,10.4.35,10.4a.54.54,0,0,0,.21,0c.73-.31,5-2.59.18-10.46C705.68,56.85,705.25,56.91,705.08,57.2Z" transform="translate(-62.73 -24.48)"/><path class="cls-63" d="M705.68,56.91c3.62,0,15.4-.37,9.23-4.86a.86.86,0,0,0-.25-.14c-1-.4-7.46-2.56-9.83,4.5C704.76,56.62,705.24,56.92,705.68,56.91Z" transform="translate(-62.73 -24.48)"/><path class="cls-63" d="M734.68,123.27c1.85,2.2,8.36,9.23,11.6,3.59a.42.42,0,0,0,.06-.21c0-.8-.16-5.63-11.38-4.11A.45.45,0,0,0,734.68,123.27Z" transform="translate(-62.73 -24.48)"/><path class="cls-63" d="M734,117.16c1.76,2,8,8.18,11.49,3.23a.34.34,0,0,0,.07-.18c.08-.7.08-5-11.25-3.7A.4.4,0,0,0,734,117.16Z" transform="translate(-62.73 -24.48)"/><path class="cls-63" d="M732.42,108.13c1.93,2.62,8.74,11,12.26,4.64a.61.61,0,0,0,.07-.24c0-.91-.09-6.49-12-5.23A.52.52,0,0,0,732.42,108.13Z" transform="translate(-62.73 -24.48)"/><path class="cls-63" d="M730.19,99.59c1.87,2.42,8.45,10.16,11.92,4.23a.44.44,0,0,0,.07-.22c.06-.85,0-6-11.68-4.78A.48.48,0,0,0,730.19,99.59Z" transform="translate(-62.73 -24.48)"/><path class="cls-63" d="M728.57,92.11c1.71,2.16,7.78,9.13,11.5,4a.36.36,0,0,0,.08-.19c.11-.75.27-5.28-11.24-4.51A.42.42,0,0,0,728.57,92.11Z" transform="translate(-62.73 -24.48)"/><path class="cls-63" d="M726.24,83.79c2,2.72,9,11.47,12.93,5a.5.5,0,0,0,.09-.24c.08-.94.1-6.67-12.66-5.62A.54.54,0,0,0,726.24,83.79Z" transform="translate(-62.73 -24.48)"/><path class="cls-63" d="M723.54,76.07c2.06,2.33,9.29,9.78,12.55,3.55a.62.62,0,0,0,.07-.23c0-.87-.39-6.11-12.35-4.13A.5.5,0,0,0,723.54,76.07Z" transform="translate(-62.73 -24.48)"/><path class="cls-63" d="M719.39,67.75c2,2.48,9.06,10.39,12.06,3.94a.48.48,0,0,0,.06-.24c0-.9-.48-6.39-11.87-4.53A.52.52,0,0,0,719.39,67.75Z" transform="translate(-62.73 -24.48)"/><path class="cls-63" d="M712.92,60.78c3.6,2.22,15.6,9.11,13.11.44a1,1,0,0,0-.14-.3c-.7-1.07-5.35-7.38-13.41-1.21C712.24,59.89,712.48,60.51,712.92,60.78Z" transform="translate(-62.73 -24.48)"/><path class="cls-63" d="M658.36,65.8a.45.45,0,0,0,.61-.51c-.89-3.37-4.47-15.42-9.5-11.16C649.47,54.13,645.87,60.51,658.36,65.8Z" transform="translate(-62.73 -24.48)"/><path class="cls-63" d="M662.48,60.77a.43.43,0,0,0,.62-.43c-.61-3.07-3.2-14.07-8.33-10.49C654.77,49.85,650.87,55.4,662.48,60.77Z" transform="translate(-62.73 -24.48)"/><path class="cls-63" d="M665.49,57.19a.44.44,0,0,0,.73-.21c.39-3.11,1.4-14.36-4.6-12.59C661.62,44.39,656.17,48.43,665.49,57.19Z" transform="translate(-62.73 -24.48)"/><path class="cls-63" d="M670,53.4c.19.23.58.22.66,0,.77-2.38,3.21-11.08-2.27-10.81C668.38,42.56,663.08,44.72,670,53.4Z" transform="translate(-62.73 -24.48)"/><path class="cls-63" d="M673.41,51.49c.1.29.47.41.63.2,1.53-2,6.77-9.34,1.53-10.94C675.57,40.75,669.84,41,673.41,51.49Z" transform="translate(-62.73 -24.48)"/><path class="cls-63" d="M677.76,50a.31.31,0,0,0,.47.26c1.75-1.33,7.89-6.36,4-8.56C682.24,41.67,677.5,40.86,677.76,50Z" transform="translate(-62.73 -24.48)"/></svg>